<svg width="500" height="512" xmlns="http://www.w3.org/2000/svg">
 <!-- Created with UXWing SVG Editor - https://uxwing.com/svg-icon-editor/ -->

 <g>
  <title>background</title>
  <rect fill="none" id="canvas_background" height="514" width="502" y="-1" x="-1"/>
  <g display="none" overflow="visible" y="0" x="0" height="100%" width="100%" id="canvasGrid">
   <rect fill="url(#gridpattern)" stroke-width="0" y="0" x="0" height="100%" width="100%"/>
  </g>
 </g>
 <g>
  <title>Layer 1</title>
  <g id="svg_7">
   <g transform="matrix(4.17252 0 0 3.99892 -14.2646 -8.20412)" id="svg_5">
    <path stroke="null" id="svg_6" d="m11.375245,3.752583l41.88,0c0,40.959995 0,81.920017 0,122.880008l0,0l-41.88,0c-1.520004,0 -2.919998,-0.630013 -3.940002,-1.649994l-0.010002,-0.009995c-1.009995,-1.01001 -1.629997,-2.400009 -1.629997,-3.940018l0,-111.680003c0,-1.529999 0.629997,-2.919998 1.650002,-3.939995l0.010002,-0.010002c1,-1.029999 2.389999,-1.650002 3.919998,-1.650002l0,0l0,0zm55.260001,122.880008l47.699997,0c1.529999,0 2.919998,-0.630013 3.940002,-1.649994l0.009995,-0.009995c1.009995,-1.01001 1.630005,-2.410019 1.630005,-3.940018c0,-20.749985 -0.009995,-39.98999 -0.009995,-60.730011l-53.270004,0c0,20.730011 0,39.930023 0,60.660019l0,5.669998l0,0l0,0zm0,-122.880008l47.699997,0c1.529999,0 2.919998,0.629997 3.940002,1.650002l0.009995,0.010002c1.009995,1.009995 1.630005,2.409996 1.630005,3.939995c0,13.369996 -0.009995,24.449992 -0.009995,37.809993l-53.270004,0c0,-14.459991 0,-28.929989 0,-43.389995l0,-0.019997l0,0z"/>
   </g>
   <rect stroke="null" id="svg_8" height="51" width="205.999999" y="302.000002" x="6.000002" stroke-opacity="null" stroke-width="null" fill="#ffffff"/>
  </g>
 </g>
</svg>