<?xml version="1.0" encoding="utf-8"?>
<!DOCTYPE svg PUBLIC "-//W3C//DTD SVG 1.1//EN" "http://www.w3.org/Graphics/SVG/1.1/DTD/svg11.dtd">
<svg version="1.1" id="Layer_1" xmlns="http://www.w3.org/2000/svg" xmlns:xlink="http://www.w3.org/1999/xlink" x="0px" y="0px"
	 viewBox="0 0 1618.027 1647.2764" enable-background="new 0 0 1618.027 1647.2764" xml:space="preserve">
<g>
	<path fill="#ED2939" d="M1582.3993,377.8304c-5.5168-0.2397-11.137-0.5489-15.9161-3.8801
		c-5.3226-3.7101-10.5138-4.4261-15.6705,0.2562c-1.3997,1.2709-2.5986,1.1514-3.5911-0.5698
		c-2.7019-4.6855-6.9832-4.3915-11.3718-3.4448c-2.3748,0.5123-4.7773,1.0768-7.0186,1.985
		c-3.7756,1.5302-6.4756,0.771-8.1781-3.035c-0.7711-1.7239-2.401-2.4762-3.8993-3.4135
		c-4.9817-3.1167-10.787-5.2744-13.3015-11.3161c-0.4509-1.0831-1.2516-1.5556-2.5898-1.3892
		c-2.5461,0.3166-5.1355,0.2783-7.6853,0.5737c-3.0483,0.3533-6.3486,0.3514-8.4343,3.1389
		c-4.041,5.4004-9.595,6.3249-15.8044,5.7798c-2.2825-0.2004-4.7402-0.4443-6.8795,0.1665
		c-5.0233,1.4342-9.0692-1.414-10.7858-4.6051c-3.5553-6.6095-9.7739-8.0022-15.5986-10.4874
		c-3.6995-1.5784-10.1049,2.2957-10.3757,6.2546c-0.2026,2.9623-1.0701,4.9774-4.5842,4.5491
		c-0.7804-0.0951-1.6589,0.0301-2.4009,0.3025c-3.0173,1.1078-4.6749,0.008-6.0272-2.8348c-1.433-3.0124-2.1761-6.8829-5.156-8.5267
		c-2.5414-1.4018-3.3007-2.9059-2.9015-5.3627c0.5691-3.5033-0.6235-5.7017-4.2063-6.4856
		c-3.9622-0.8669-5.2996-3.3249-4.8866-7.3439c0.2721-2.6473-0.3387-5.3805-0.4941-8.0787
		c-0.0648-1.1278-0.4059-2.041-1.1495-2.9326c-4.9983-5.9928-12.03-8.5875-18.9719-11.2266
		c-1.9612-0.7456-4.1951-0.3008-6.3424,0.4949c-3.5419,1.3125-6.8274,1.3199-10.1023-1.5345
		c-2.4778-2.1596-4.4784-5.0037-8.723-5.2359c-6.8435-0.3744-10.6516,3.7707-14.7151,7.8956
		c-0.8357,0.8483-1.2346,2.1909-2.7395,2.0472c-4.2411-0.4052-9.0414,1.6429-12.3403-2.9444
		c-0.8774-1.2203-2.4709-1.1625-3.7861-0.9348c-5.4902,0.9505-9.1746-1.3892-12.2648-5.791
		c-1.7407-2.4794-3.7277-6.0544-6.6022-6.2611c-6.4724-0.4655-13.6735-2.3982-18.6954,4.2161
		c-1.7151,2.2592-4.0361,2.9146-6.7987,2.7518c-3.3977-0.2001-6.5392-0.0512-9.1628,3.0062
		c-2.0714,2.4141-4.5865,1.3155-5.2905-1.8478c-0.5282-2.373-0.8669-4.8011-1.571-7.1192c-1.119-3.6835-3.4596-6.7167-7.3927-7.0005
		c-5.1172-0.3692-7.2921-2.7719-7.3414-7.6519c-0.0066-0.6544-0.3655-1.2986-0.5045-1.9594
		c-1.1019-5.2346-4.1185-7.8812-9.3624-8.2894c-3.5035-0.2727-6.9988-0.6501-10.5005-0.9472
		c-2.5461-0.2159-4.1997-1.2706-4.8373-3.982c-1.4724-6.2615-6.17-8.3463-11.9916-8.9376
		c-1.8931-0.1923-3.7825-0.4196-5.6711-0.6558v1177.8795c1.9861,0.4265,3.9723,0.8534,5.96,1.2719
		c8.5176,1.7928,16.3318-1.8188,24.8293-2.6007c-3.0403-3.2234-5.6355-5.946-8.1919-8.7048
		c-0.6923-0.7472-2.2446-1.6239-1.4067-2.5684c1.9396-2.1873,3.9294-4.6936,7.0046-5.2114
		c3.1177-0.525,12.1294,4.8678,13.056,8.0259c1.975,6.7323,5.9454,9.7349,13.0302,8.4408c1.8337-0.3348,3.7944,0.1034,5.6804-0.035
		c9.5671-0.703,19.49,2.8199,28.6912-2.4368c1.1245-0.6427,1.9551,0.071,2.5059,1.2651c1.0391,2.2526,0.9261,4.0742-1.188,5.7141
		c-2.3945,1.8575-4.8866,3.663-7.1599,6.8722c3.4977,0,6.3091,0.1742,9.0902-0.0416c4.002-0.3105,4.0609,1.1096,2.743,4.3787
		c-0.9736,2.4147-3.2888,3.8899-4.2183,6.8646c6.8613,0,13.3301,0.3336,19.7498-0.0841c8.0532-0.5242,15.551,1.2126,22.9388,4.0829
		c1.3033,0.5065,2.6102,0.9391,3.3292,2.1425c1.7197,2.8789,4.4744,4.4553,7.4543,5.249c5.0122,1.3346,7.2975,4.5352,7.7675,9.4291
		c0.0514,0.535,0.1979,1.0634,0.3254,1.5886c1.2465,5.1283,5.7328,6.8414,10.2257,3.9561
		c4.4419-2.8524,8.9211-5.6471,13.3817-8.4703c1.1394-0.7212,2.1744-1.2476,3.7323-1.051c4.6904,0.592,9.4243,0.8369,14.1378,1.255
		c1.2966,0.1149,2.9395-0.1057,3.1466,1.7838c0.1921,1.7512,0.2808,3.5229-1.8326,4.4662c-1.1349,0.5067-2.564,0.7545-3.3636,2.4442
		c4.2383,0,8.1539,0,12.156,0c-0.1387-0.5164-0.139-0.8093-0.2794-0.9987c-4.8574-6.5532-3.3458-13.4989,4.2958-15.2217
		c4.8213-1.087,9.793,2.0178,14.3147,4.3422c1.2852,0.6608,1.6772,3.0906,3.8386,2.0459c2.0193-0.9757,3.4608-2.2495,3.6012-4.887
		c0.1469-2.7585,0.717-5.373,3.0826-7.5952c3.4741-3.2629,7.4446-1.8109,11.1851-1.9075c3.0856-0.0798,5.5155-0.4399,6.917-3.5566
		c0.7056-1.5688,1.9374-2.7881,3.881-1.7205c5.0737,2.7874,9.5848,0.7286,14.1566-1.4333c1.543-0.7296,2.2593-1.629,2.2075-3.3942
		c-0.1111-3.7911-0.1263-7.5909,0.0013-11.3811c0.0764-2.2688-0.7416-2.6373-2.8868-2.3942
		c-2.8438,0.3221-5.7515,0.0793-9.3624,0.0793c1.4984-1.0325,2.3073-1.7354,3.2341-2.2053
		c7.1553-3.6276,11.6696-9.1205,11.9326-17.3831c0.1001-3.1404,1.6626-3.7361,4.351-3.8496
		c8.8665-0.3748,16.8453-2.2219,22.1466-10.6786c1.8363-2.9291,2.986-5.4357,2.9957-8.8044
		c0.0259-8.8453,0.1504-8.9979,8.6475-6.9364c2.979,0.7228,5.083,0.3137,6.4839-2.3448c1.304-2.4745,3.4075-2.5836,5.5529-1.9203
		c2.589,0.8005,2.9681-0.2639,2.9396-2.4917c-0.0518-4.0625,0.03-8.1318,0.2197-12.1906c0.118-2.5269,0.7073-4.1725,4.1377-4.522
		c5.1268-0.5222,10.8381,0.652,14.8962-4.5878c4.0876-5.278,9.33-8.9861,16.7258-7.4457c1.4033,0.2921,3.1316-0.2239,2.8384-1.9823
		c-0.8218-4.929,2.6215-6.5093,5.9395-8.4248c5.925-3.4207,5.8938-3.4749,3.1824-9.605c-3.5425-8.0085-3.5283-7.9934,2.9868-14.0732
		c1.3159-1.228,2.9155-2.1047,2.4114-4.6428c-1.4055-7.0757-1.2532-7.1069,5.5872-9.3381c1.543-0.5034,3.1035-0.957,4.6279-1.511
		c0.8662-0.3147,1.9817-0.5173,2.1929-1.5977c1.0964-5.6072,4.1804-10.719,2.8799-16.9523
		c-0.9421-4.515-3.2756-8.2566-4.7944-12.4139c-2.4116-6.6018-4.4197-7.7195-11.4941-5.9163
		c-1.1746,0.2993-2.2965,0.8062-3.4421,1.2195c-7.6348,2.7542-15.1755,5.8203-22.9348,8.1633
		c-6.0144,1.8162-12.116,2.4529-17.3291-2.8164c-8.9717-9.0686-20.0223-13.5671-32.7566-13.3774
		c-3.7407,0.0557-4.9717-1.1626-4.3193-4.5902c1.0171-5.3434-1.1389-8.8032-6.0964-10.7233
		c-0.4974-0.1926-0.9014-0.6332-1.4011-0.812c-4.8737-1.7456-5.8562-5.2866-5.7417-10.1694
		c0.1006-4.295,0.4498-7.1519,5.6814-6.5148c0.6963,0.0848,1.4712-0.4755,2.2605-0.755c-2.7771-3.6523-2.8782-3.7231-7.4596-5.2991
		c-3.8131-1.3115-6.4233-7.4707-4.985-11.239c1.9268-5.0471,6.2471-8.1533,9.7155-11.8401
		c2.5254-2.6844,2.8879-5.0537,2.1375-8.2617c-1.1842-5.0618,4.5355-11.8896,9.7755-11.9213
		c1.3328-0.0081,3.217,0.8102,3.4412-1.5936c0.1769-1.8948,0.3971-3.8125-1.9886-4.7327c-1.5094-0.582-2.8883-1.4944-4.3788-2.1353
		c-1.7131-0.7361-2.3954-2.0447-2.5435-3.8044c-0.272-3.2324-0.6846-6.4548-0.8765-9.6912
		c-0.3455-5.8323-4.1025-9.175-9.8015-7.8925c-4.5498,1.0238-8.4827,0.3768-12.3958-1.9742
		c-2.5468-1.5303-5.2617-2.8022-7.9771-4.022c-1.6633-0.7473-2.4678-1.8154-2.6904-3.6361
		c-0.5405-4.4205-1.4641-8.8036-1.8141-13.2347c-0.2126-2.6934-1.4618-3.8733-3.8553-4.2502
		c-4.6281-0.7288-7.0333-3.6544-8.932-7.7869c-4.5348-9.8694-4.7094-9.7893,5.4701-13.9452
		c0.1255-0.0511,0.2517-0.1012,0.373-0.1609c4.8198-2.3756,9.168-3.994,14.4189,0.1746c3.9274,3.1176,7.7275,0.6036,8.38-4.5077
		c0.1403-1.0994,0.1323-2.1943,1.2775-2.7849c7.4825-3.8591,13.4774-10.3861,22.0975-12.228
		c2.5717-0.5494,4.9525-1.5619,4.9213-4.8568c-0.0254-2.6886,2.2859-5.7804,0.6304-7.8585
		c-3.3362-4.188-1.1705-7.1709,0.9504-10.5264c1.3733-2.1726,2.4448-4.5449,3.9106-6.6471c1.333-1.9117,0.9031-2.6224-1.1842-3.3768
		c-2.2975-0.8304-5.7455-0.8479-6.0516-3.9694c-0.609-6.2062-4.8167-8.9501-9.6075-11.4459
		c-2.0387-1.0621-3.8936-2.506-5.9845-3.4315c-2.9507-1.306-3.802-3.3683-3.4487-6.4528c0.3833-3.3492,0.691-6.7642,0.4734-10.1142
		c-0.593-9.1298-0.7371-9.2734-9.8103-7.6265c-2.7144,0.4927-4.1548-0.4506-5.9799-2.1342
		c-5.2926-4.8825-8.1533-10.4494-6.8636-17.8765c0.4805-2.7673,0.2772-5.687,0.1152-8.5216
		c-0.1274-2.2271,0.6152-3.4166,2.7412-4.2369c5.4263-2.0937,10.7395-4.4789,16.1455-6.6286
		c1.91-0.7596,3.0405-1.9845,3.8265-3.8603c2.5211-6.0175,0.6332-16.8794-3.8562-21.4676c-2.0851-2.131-4.2433-4.1968-6.2286-6.4172
		c-2.0747-2.3207-4.0511-4.5562-7.3815-1.8271c-0.8268-2.0045-0.681-3.8268-0.4132-5.4671
		c1.064-6.5118-1.104-10.3702-7.6827-12.6734c-6.5697-2.2999-6.7913-5.3622-1.9755-10.467c2.0027-2.1227,4.123-3.8985,4.1028-7.4839
		c-0.022-3.8682-1.2339-6.6785-3.9025-9.2949c-4.0873-4.0071-9.0146-7.5923-8.3677-14.4286
		c0.1694-1.7905-1.3478-1.7054-2.5793-1.7084c-3.9299-0.0093-7.86,0.0128-11.7899-0.0097
		c-11.7407-0.0672-22.9648,1.326-31.3861,10.8683c-0.5255,0.5955-1.3325,0.9327-1.9381,1.4694
		c-1.4238,1.262-2.3096,0.6094-3.2924-0.663c-3.99-5.1657-8.4312-4.5067-11.0714,1.5682c-0.7014,1.614-1.4932,3.1888-2.2433,4.7817
		c-3.0699,6.5186-2.6982,8.8863,2.8025,13.5565c2.2964,1.9498,1.9318,2.8415-0.4056,4.3028
		c-5.7361,3.5863-11.4934,7.1899-16.0706,12.3087c-0.8568,0.9584-1.8867,1.4151-3.2197,1.4039
		c-5.4202-0.0461-10.8411-0.0054-16.2616-0.0314c-1.0303-0.005-2.0792,0.1719-2.5758-1.2988
		c-2.0154-5.9706,1.1987-12.9547,7.1455-14.713c2.4297-0.7186,5.0706-0.7133,7.6102-1.0742
		c1.4973-0.2127,3.6879,0.461,3.8436-1.9005c0.1278-1.9397,1.8955-4.3456-0.8756-5.8394c-2.1624-1.1656-1.5367-2.4883-0.3986-3.909
		c1.8625-2.3245,3.7811-4.6053,5.6018-6.9619c2.4364-3.1536,2.0422-5.2785-1.3522-7.2676
		c-2.1012-1.2312-4.2177-2.4658-6.4335-3.4634c-2.2437-1.0103-3.136-2.3679-3.0718-4.9794
		c0.1506-6.1209,0.9553-11.8237,6.0154-16.0748c1.0177-0.8551,1.6484-2.1551,2.6017-3.1055
		c1.5898-1.585,1.0393-2.3217-0.7904-3.1336c-4.5341-2.012-4.7434-4.447-1.0095-7.9208
		c11.4028-10.6077,22.7271-21.2999,34.157-31.8782c1.7466-1.6164,2.478-3.2791,2.355-5.6632
		c-0.4044-7.8387-0.5591-15.6903-0.9453-23.5302c-0.1135-2.3075,0.512-3.6846,2.7484-4.7011
		c5.545-2.5202,10.9384-5.3712,16.4326-8.0063c8.0321-3.8524,13.9517-9.161,13.265-19.0318
		c-0.1611-2.3155,1.0334-3.3483,2.8938-4.2908c2.3855-1.2086,5.063-1.9391,6.9241-4.0952
		c5.0421-5.8419,10.0233-11.7426,15.2471-17.419c2.699-2.9329,4.386-5.6682,1.8054-9.5153
		c-0.698-1.0406-1.5424-2.6722,0.5669-3.2654c4.8101-1.353,7.5254-5.0988,10.303-8.7687c1.0464-1.3826,3.3595-2.4568,1.8357-4.7647
		c-1.4399-2.1807-3.3789-3.3951-6.2019-2.722c-2.8889,0.6888-5.8167,1.226-8.7424,1.7449c-1.0781,0.1912-2.3777,1.4083-3.25-0.143
		c-0.8158-1.4507,0.2687-2.5539,1.1563-3.5896c4.2278-4.9336,8.5217-9.8124,12.6633-14.8174
		c1.5481-1.8708,3.5742-2.301,5.7115-2.6306c2.6703-0.412,5.4395-0.438,8.0099-1.1754c3.0464-0.8739,3.5867,0.1725,3.1855,2.8815
		c-0.634,4.2811,1.7559,7.0491,6.0829,7.1028c3.1157,0.0388,6.2335-0.1033,9.3496-0.0787
		c7.4575,0.059,14.2574-1.2113,19.8735-6.9518c2.3297-2.3811,4.1886-4.2693,3.7667-7.7983
		c-0.6709-5.611,0.3914-10.7348,4.7712-14.7864c1.6113-1.4907,1.3022-2.9681-0.1671-4.5494
		c-3.8754-4.171-7.3258-8.5875-9.3337-14.0863c-0.8657-2.3708-0.952-4.1143,0.8026-5.8531
		c2.7067-2.6823,3.2085-5.9395,3.1741-9.6338c-0.0386-4.145-1.1089-8.4924,0.7881-12.4352
		c1.8193-3.7815,2.7642-7.6428,2.2822-11.7726c-0.5-4.2857,0.5081-8.0424,3.4377-11.2017c1.9341-2.0855,1.6609-3.8876-0.0229-6.0443
		c-1.7109-2.1913-3.9673-4.1715-4.1267-7.2736c-0.2361-4.593-0.3752-9.1931-0.7192-13.7778
		c-0.2312-3.0803,0.4452-5.7991,1.9048-8.5363c4.2682-8.0039,8.2407-16.1658,12.5249-24.1608
		c1.632-3.0457,1.7576-6.007,1.4373-9.3582c-0.5698-5.961-2.0592-11.7706,0.0659-18.0069
		c3.2498-9.5382,6.6519-19.0753,6.9739-29.4684c0.3435-11.0836,0.7964-11.0687,9.8206-17.4568
		c0.9944-0.7039,1.9099-1.5491,2.9747-2.1182c3.3514-1.7915,4.5699-4.3843,4.3184-8.262
		c-0.2806-4.3264,5.5951-10.3145,9.9393-10.8207c3.4695-0.4044,7.5708-5.1696,6.7214-8.6348
		c-1.3459-5.4922,0.2859-10.2823,1.908-15.3726c1.6252-5.0996,3.8691-8.7209,9.7324-8.7662
		c0.1702-0.0013,0.3374-0.352,0.7214-0.7794C1591.7086,381.3125,1588.045,378.0757,1582.3993,377.8304z"/>
	<path fill="#FFFFFF" stroke="#000000" stroke-miterlimit="10" d="M1190.182,254.2609c-0.7949-0.0972-1.9922-0.0353-2.0164-0.9437
		c-0.1385-5.2229-2.9972-10.5218,0.4302-15.6675c1.79-2.6876,1.0762-5.8027-1.6003-7.6279
		c-8.0083-5.4609-8.0089-5.4611-4.6509-14.837c0.1367-0.382,0.3009-0.7546,0.4624-1.1272c0.6211-1.4337,0.3765-2.7078-0.9146-3.5874
		c-2.995-2.0403-1.7122-3.4563,0.4624-5.1309c3.4556-2.6609,5.363-10.4924,3.634-14.2119
		c-0.2173-0.4678-0.6189-0.8912-1.0269-1.2225c-2.4922-2.0243-10.7341-0.9941-12.5944,1.6299
		c-2.423,3.4176-4.4042,7.1887-7.703,9.9008c-2.0736,1.7048-2.8528,3.7557-2.6313,6.4147c0.1904,2.2878,0.0291,4.6043,0.0417,6.908
		c0.0068,1.2438-0.05,2.3731-1.2949,3.1774c-3.1724,2.0497-6.1477,4.3434-9.9097,5.4231c-4.5413,1.3033-9.104,2.7069-13.3951,4.6475
		c-3.1354,1.4179-5.3743,0.9948-7.599-1.3312c-3.1855-3.3303-6.9957-4.5385-11.6671-4.1929
		c-5.2563,0.3889-10.5695-0.0588-15.8463,0.1503c-2.7075,0.1073-3.4412-1.0527-3.8344-3.4552
		c-0.6774-4.1401,2.911-4.4761,5.0547-5.8463c7.5695-4.838,7.6115-4.7403,6.1396-13.1614c-0.3773-2.1589-1.1366-3.5539-3.642-4.0762
		c-2.7723-0.5779-5.7732-0.8318-8.4153-2.5703c1.3544-1.8828,3.0044-3.2993,2.4961-5.6102c-1.041-4.732,1.5037-7.4179,5.1616-9.8461
		c4.855-3.2225,4.7384-5.7615-0.0247-9.503c-5.1101-4.0141-10.3806-7.837-15.3181-12.0518
		c-2.1945-1.8734-4.365-2.3273-7.0454-2.1314c-7.6858,0.5616-15.3755,1.1705-23.0747,1.4136
		c-4.5535,0.1439-9.0369-0.3367-10.8358,5.3328c-0.588,1.8532-2.4719,1.3818-3.8878,1.1573
		c-1.5381-0.2438-1.1024-1.6436-1.1146-2.6407c-0.0316-2.5739-0.3541-5.2252,0.1327-7.7097
		c1.5945-8.1384-0.6863-14.7806-6.965-20.1175c-0.1014-0.0861-0.184-0.2017-0.2533-0.3169
		c-1.4896-2.4767-3.6848-2.9487-6.3037-2.226c-1.5649,0.4319-3.3923,1.2233-4.4585-0.5123
		c-2.7258-4.4375-5.9388-3.3337-9.4601-1.2493c-1.27,0.7518-2.7754,1.0986-4.0754,1.8091
		c-1.8593,1.0162-3.3706,0.7382-4.6418-0.8989c-1.5308-1.9714-3.5083-2.7705-6.0046-2.7299
		c-3.6865,0.0601-5.7135-1.6617-6.7021-5.4536c-1.438-5.5146-0.6375-11.0468-1.0168-16.556
		c-0.2413-3.507-0.1626-7.0562-0.6813-10.5185c-0.5428-3.6234-6.698-2.6945-6.3696-7.31c-4.0968-0.3224-4.1373-3.3942-4.4392-6.3937
		c-0.1338-1.3297-1.2764-1.7457-2.4464-1.5139c-9.8125,1.9445-20.235,2.3005-26.7979,11.886
		c-3.3894,4.9503-8.5817,4.715-12.3397,0.0875c-1.7321-2.1328-2.9088-4.4417-3.652-7.1091
		c-1.8542-6.6545-6.0068-9.8987-12.6899-9.8275c-2.3829,0.0254-3.6492-0.7738-4.6838-2.878
		c-3.2059-6.5193-3.7446-12.8722,0.5808-19.1046c1.1584-1.6692,1.2565-3.2645,0.8561-5.3216
		c-1.4025-7.2064-5.4855-13.2031-8.3292-19.7556c-1.1948-2.7534-2.4932-2.6445-4.9542-1.6226
		c-6.9703,2.8943-13.2455,7.5284-20.9235,8.6509c-14.8376,2.1693-29.649,4.5098-44.3335,7.5457
		c-9.3806,1.9393-19.3077,2.0461-26.9905,9.4715c-4.9359,4.7706-10.697,8.7265-16.307,12.7421
		c-2.3934,1.7133-3.202,3.5472-3.1871,6.4039c0.1052,20.1913,0.0415,40.3835,0.0618,60.5754
		c0.0109,10.8276-0.0793,21.6285-1.2822,32.4293c-1.286,11.5493-1.0142,11.5884,7.988,18.9712
		c0.6277,0.5148,1.1919,1.1172,1.8573,1.5744c3.0968,2.1272,3.6853,5.0107,2.5956,8.9097c-4.576-2.7203-8.9854-5.2979-13.3469-7.954
		c-1.996-1.2156-3.5103-1.4781-5.1255,0.8017c-2.3425,3.3066-4.9337,6.4616-7.6475,9.4756
		c-6.0508,6.7203-10.64,14.7242-17.8162,20.4436c-4.9751,3.9652-9.955,7.938-15.1189,11.6482
		c-4.0088,2.8801-7.4141,6.6701-12.6514,7.7634c-7.0063,1.4627-13.915,3.3901-20.874,5.0835
		c-14.589,3.55-28.968,7.6247-42.9561,12.9272v1273.0608c1.7491,0.4192,3.4459,1.0398,5.012,2.1907
		c11.1365,8.1842,24.0809,10.475,37.4683,11.0659c2.1025,0.0929,3.5145,0.6604,4.7474,2.3936
		c2.3523,3.3069,4.9794,6.4174,7.379,9.6924c0.9915,1.3533,2.1074,1.8811,3.7709,1.7627
		c7.0111-0.4999,14.0323-0.8621,21.0414-1.3882c2.2151-0.1663,3.7734,0.1858,5.0002,2.3757
		c2.3127,4.1287,5.1848,7.9473,7.443,12.1021c1.2399,2.2813,2.5438,2.423,4.4989,1.3958c3.6956-1.9417,7.5557-2.8285,11.7505-2.1223
		c4.6608,0.7847,9.3491,1.4041,14.0131,2.171c8.5043,1.3982,8.2938,1.4611,9.9166,9.9489c0.689,3.6041,0.01,7.7275,2.9869,10.7025
		c4.7224,4.7191,9.6984,8.954,16.7706,9.7389c2.3943,0.2656,4.7063,1.2131,7.0793,1.7444c2.1111,0.4727,3.4851,1.4143,3.0569,3.8501
		c-1.0684,6.075,1.7087,10.0481,6.4451,13.6426c5.6418,4.2821,9.5977,4.2834,14.198-1.2416
		c2.165-2.6005,4.2983-5.2277,6.4216-7.8624c0.8627-1.0708,1.7644-1.8519,3.231-2.2136c6.6279-1.6335,13.1072-2.7427,19.6899,0.5115
		c3.2438,1.6035,6.8706,2.4546,10.3601,3.5289c1.6064,0.4946,2.9216,1.3319,4.1656,2.4186
		c4.1803,3.6516,8.4956,7.1548,12.5671,10.9224c2.1805,2.0181,3.3793,2.0957,5.257-0.516c3.2263-4.4869,5.1843-4.7544,9.0636-2.0529
		c1.3737,0.9567,2.4457,1.8696,4.3441,0.8929c1.8774-0.9657,1.9434-2.4231,1.9009-4.0636c-0.1029-3.972,0.9202-6.7148,5.7006-6.9558
		c2.7792-0.1401,5.4725-1.5719,8.267-1.923c3.7559-0.4719,6.6598-1.932,8.5061-5.3037c2.9982-5.4752,8.4994-6.3497,13.8203-7.0555
		c7.3232-0.9711,14.2708-0.4661,18.5881,7.0582c0.9653,1.6821,9.1213,2.6984,10.689,1.7238
		c0.3938-0.245,0.7068-0.7698,0.8586-1.2312c1.6821-5.1143-1.8013-14.3557-6.9556-15.783
		c-6.4399-1.7834-7.4092-6.0107-7.3617-11.4485c0.0297-3.3872-0.0117-6.7769-0.1152-10.1626
		c-0.1989-6.4941-0.118-12.9871-0.4387-19.488c-0.6068-12.3005-1.0248-24.6284-0.8927-36.9382
		c0.0562-5.2512,0.2813-10.5449,0.5399-15.8142c0.1036-2.1122-0.4818-3.0992-2.7885-2.3933
		c-3.1743,0.9712-5.4995-0.0121-6.9529-3.1101c-0.568-1.2106-1.5238-2.2341-2.245-3.3794
		c-1.4491-2.3013-0.0293-7.9404,2.7552-9.5085c2.5172-1.4178,3.3663,1.4917,4.6306,2.6689
		c6.5195,6.0715,6.3801,6.0413,13.2764,0.7119c5.4691-4.2267,10.5034-8.5593,10.0034-16.3826
		c-0.1288-2.0161,1.5215-2.2881,2.9452-2.7316c5.6812-1.7694,11.3546-3.5637,17.0441-5.3058
		c1.6047-0.4912,3.2363-1.0066,3.643-2.835c0.8176-3.6757,3.3926-3.9592,6.4609-3.7394c7.3511,0.5265,14.453,0.3173,18.48-7.4539
		c0.0591-0.1139,0.1836-0.1991,0.2896-0.2826c17.4202-13.7565,34.4092-28.0781,52.9497-40.3658
		c1.1406-0.7559,2.2256-1.6289,3.7092-1.2521c3.1973,0.8124,6.4692,0.4924,9.7065,0.6875c6.6511,0.4004,6.6516,0.3928,6.6526,6.8396
		c0.0001,0.9486,0.1013,1.9102-0.0181,2.8435c-0.3585,2.7971,0.9624,3.5103,3.5315,3.2869
		c3.7659-0.3275,7.5702-0.7407,11.328-0.5431c16.474,0.8666,32.9308,2.0833,49.4091,2.8341
		c3.9479,0.1801,6.0465,2.0564,7.9495,4.8523c-0.7373,1.0713-1.6787,0.8813-2.3805,0.7434c-5.006-0.9846-7.829,1.4836-9.5944,5.814
		c-0.3024,0.7416-0.8112,1.4076-1.2756,2.073c-1.2419,1.7793-1.1523,2.6577,1.3378,3.1113
		c4.6451,0.8464,9.2645,1.8329,13.8829,2.825V255.2236C1195.2499,254.9066,1192.7172,254.5712,1190.182,254.2609z"/>
	<path fill="#002395" d="M651.7265,260.6666c-11.2725,5.579-19.9585,12.8831-26.5784,23.7538
		c-4.4491,7.3062-5.9829,14.8661-7.281,22.8204c-0.1931,1.1826-0.4642,2.5579,0.7634,3.3668
		c5.3256,3.5085,9.4561,8.8648,16.5212,9.6904c3.7618,0.4395,7.6809,0.9443,11.2739,2.6156
		c-6.3115,1.9478-13.1787,1.1837-18.8877,4.6962c-12.9451,7.9644-26.3894,14.7833-40.6689,20.1236
		c-5.3463,1.9995-9.3303,2.0186-14.1721-1.1262c-5.0566-3.2842-10.1497-7.1646-16.1461-8.3527
		c-9.5264-1.8875-19.2399-2.8102-28.847-4.3156c-10.6078-1.662-21.6837-1.666-30.9493-8.3561
		c-1.3506-0.9752-2.8061-0.5468-4.2888-0.1606c-5.8847,1.5323-11.8426,2.8089-17.6661,4.5408
		c-3.1661,0.9416-4.2952,0.5389-4.225-3.0378c0.14-7.1389-0.8917-13.9344-7.11-18.8145c-1.6676-1.3087-2.6112-3.529-4.2592-4.8754
		c-5.4077-4.418-5.5991-9.2612-2.2804-15.0925c1.3704-2.4081,2.1962-4.4719,5.4945-3.969c2.5154,0.3835,3.1013-0.8277,2.1644-3.1396
		c-1.2697-3.1329-2.5674-6.2797-3.4764-9.5261c-0.8901-3.1794-2.492-4.4744-5.9447-4.6326
		c-3.5055-0.1606-7.1368,0.241-10.5134-0.5338c-9.2281-2.1175-16.5582,1.2056-23.1689,7.1666
		c-2.2123,1.9949-4.2653,2.2249-6.7379,0.1716c-9.7474-8.0943-21.582-11.4965-33.5415-14.5405
		c-1.1145-0.2837-2.69-1.5375-3.2399,0.7546c-0.4581,1.9102-2.8657,3.7233-0.3895,5.8204c1.1356,0.9618,2.3917,1.7933,3.4551,2.826
		c2.6154,2.5399,7.4102,4.0089,7.858,7.2849c0.7628,5.5792,2.5945,11.9816-2.5672,16.8432
		c-2.0173,1.9001-1.7693,3.4169,0.3174,4.8445c2.3091,1.5798,2.6592,3.4677,2.1967,6.2508
		c-0.7649,4.6022-0.7947,9.1205,1.5328,13.7095c2.9,5.7181,7.2863,10.053,11.4496,14.6273c3.343,3.673,5.9625,7.4307,6.5219,12.6226
		c0.3221,2.9899,0.5747,6.3162,2.5918,8.8348c1.8389,2.2963,2.1647,4.7818,2.1146,7.5678
		c-0.1817,10.1048-0.306,19.8558,5.1817,29.3922c4.4255,7.6906,4.2885,17.4197-0.0381,25.2906
		c-4.6448,8.4499-5.2439,15.6279-1.3682,24.6282c3.1234,7.2532,6.2888,12.3408,14.7233,12.4341
		c3.0648,0.0338,3.8172,2.2557,4.2657,4.8772c0.4667,2.7277-1.5414,2.992-3.1524,3.8897c-2.3369,1.3021-4.7819,1.6199-7.4171,1.5972
		c-9.7564-0.0839-19.5385-0.4554-29.2629,0.1091c-6.9428,0.403-12.6393-1.6297-18.0755-5.532
		c-1.7646-1.2668-2.3825-2.0038-0.7801-3.9783c1.8718-2.3066,4.0206-4.5275,5.2886-7.7821c-2.71,0-5.157,0.5134-7.2778-0.1002
		c-5.4591-1.5793-9.1306,0.6037-11.8762,4.9365c-3.2123,5.0694-7.3277,7.0728-13.296,5.1608
		c-2.6119-0.8367-4.7839-0.1923-4.6281,3.4554c0.0714,1.6707-0.7498,2.833-2.9032,3.1357
		c-4.9835,0.7007-4.9592,0.8732-5.7438-5.4968c-0.358-2.9066-4.4337-5.3858-6.6985-3.9312
		c-1.288,0.8271-2.2903,2.0989-4.0706,3.7857c0-4.2728,0-7.6804,0-11.2993c-3.3699,0.9612-4.9758,4.4073-7.9942,4.4876
		c-3.0558,0.0812-6.1458-0.7369-9.2034-1.262c-1.6844-0.2893-2.2125,0.8844-2.5903,1.993c-1.4118,4.1429-4.4355,6.5031-8.245,8.3455
		c-4.6265,2.2375-9.0096,4.9754-13.6193,7.2513c-2.6567,1.3118-4.5397,2.7216-3.954,6.0831c0.3231,1.8544-0.75,2.6772-2.6317,2.6803
		c-1.8444,0.003-2.3267-0.9744-2.2545-2.5748c0.0427-0.9467-0.13-1.9198,0.0267-2.8416c0.7454-4.3828-0.7179-7.3329-5.2153-8.4847
		c-0.6428-0.1646-1.2227-0.5741-1.8319-0.8696c-6.5171-3.1602-6.5173-3.1602-5.7008-10.2814
		c0.0308-0.2689,0.0134-0.5608,0.1145-0.8015c0.9794-2.3301,0.0445-3.7944-1.978-5.0261c-1.7268-1.0517-3.1523-2.6251-4.9225-3.5732
		c-3.8432-2.0584-5.3732-5.0919-4.6168-9.3354c0.6606-3.7059-0.9057-5.5407-4.6445-5.6702
		c-2.8171-0.0975-4.201-1.4246-3.7084-4.4124c0.1965-1.1918,0.0085-2.4423,0.135-3.6515c0.2387-2.2813-0.8031-3.4224-3.0033-3.1886
		c-3.394,0.3607-3.8114-1.4487-3.4793-4.1677c0.1531-1.2538,0.5251-3.0123-1.5493-3.0799c-3.2441-0.1057-6.5504-0.3273-9.726,0.1684
		c-2.2972,0.3586-1.0858,3.7247-3.1267,5.0958c-0.7789-1.7972-1.5761-3.4965-2.2542-5.2422
		c-0.6255-1.6106-1.5977-2.3394-2.9502-0.9448c-3.5737,3.6852-8.3024,3.4234-12.8082,4.0254
		c-2.7509,0.3675-5.7614,0.1776-7.3093,3.3364c-0.8528,1.7405-2.0216,1.152-3.2986,0.2964
		c-2.7656-1.8531-5.0511-5.7211-8.3496-5.1265c-3.2015,0.5771-5.9899,3.4545-8.9545,5.3301
		c-0.6862,0.4342-1.345,0.9116-2.0269,1.353c-1.3022,0.843-1.6088,2.0361-0.4362,3.0067c4.7596,3.9402,2.4673,7.3242-0.6252,10.7699
		c-1.0818,1.2053-2.0302,2.5387-2.9641,3.8666c-1.1348,1.6137-2.5076,2.1325-4.092,0.7981
		c-5.3685-4.5216-11.5518-4.8546-18.2258-4.3306c-7.2963,0.5728-7.3243,0.2155-7.3403,7.7574
		c-0.0017,0.8131-0.029,1.6269-0.0033,2.4391c0.0451,1.4259-0.41,2.4016-2.041,2.3262c-1.4118-0.0652-3.3591,0.4951-3.4677-1.721
		c-0.1839-3.7547-2.5571-3.8052-5.064-3.0053c-2.6677,0.8511-3.0139-0.1732-3.501-2.5244c-0.7071-3.4129,0.14-7.0195-1.4538-10.8002
		c-1.671,1.8339-3.11,3.3859-4.5167,4.9666c-0.938,1.0541-2.0796,2.2589-3.4468,1.3422c-5.3147-3.5635-10.9828-1.689-16.5896-1.4904
		c-2.454,0.087-3.6507,1.0591-4.455,3.2277c-1.0952,2.9529-5.352,5.3354-8.2847,4.9325c-0.9922-0.1364-1.5185-0.6721-1.4924-1.5662
		c0.1471-5.037-2.5202-5.4937-6.5165-4.2273c-1.2567,0.3983-2.7324,0.0671-4.027,0.392c-2.2315,0.5602-5.6063-0.1226-5.0134,4.0604
		c0.0469,0.3311-0.6105,1.0866-0.9598,1.0989c-3.3372,0.1176-6.7711,1.1776-9.986-0.3777c-5.2484-2.5391-7.6982-1.4798-8.777,4.3552
		c-0.5056,2.7349-1.5281,4.0572-4.4874,3.6797c-1.8634-0.2377-3.8212,0.2421-5.6785-0.0173
		c-5.3369-0.7451-8.9172,1.5863-11.9655,5.7628c-3.7039,5.075-3.9326,5.015,1.0037,9.0846c1.705,1.4057,1.8048,2.3339,0.0375,3.6655
		c-1.944,1.4645-3.7239,3.1451-5.6444,4.6429c-1.5286,1.1921-2.0542,2.4968-0.8021,4.1454
		c1.8131,2.3873,1.7246,4.9244,0.9816,7.6837c-0.6295,2.3378-0.803,4.7946-1.3244,7.1667c-0.2961,1.3471,0.085,2.4084,1.382,2.3227
		c3.632-0.2402,7.7449,3.0121,10.8519-1.4292c0.6862-0.9809,1.6201-0.7837,2.3912,0.0807c0.8336,0.9346,1.9475,0.9423,3.0151,0.751
		c10.2975-1.8445,21.5952-0.308,29.9468-8.7971c0.1611-0.1637,0.5103-0.1425,0.7716-0.2075c0,0,0.1964,0.201,0.1938,0.1984
		c-1.1428,2.9557-3.923,4.3745-6.0812,6.3441c-2.4791,2.2623-1.0974,4.7624-0.1411,6.6699c0.8353,1.666,2.5652-0.2312,3.8401-0.6728
		c1.6561-0.5735,3.2267-1.3909,4.847-2.0728c0.8431-0.3547,1.7791-1.1231,2.6242-0.4176c0.8865,0.7402,0.1806,1.7452-0.0608,2.6338
		c-0.2125,0.7822-0.2698,1.6239-0.5854,2.3577c-1.0183,2.367,0.1707,2.8333,2.2109,2.8234
		c2.8434-0.0138,5.6884,0.0548,8.5306,0.1492c0.9962,0.0331,2.4091-0.2714,2.0638,1.5643
		c-0.2266,1.2044-0.4184,2.4848-2.1555,2.3499c-0.6736-0.0524-1.3539-0.0135-2.0308-0.0305
		c-11.507-0.2887-22.619-2.2885-32.5896-8.3689c-3.5024-2.1359-5.6296-1.7988-8.3319,1.444
		c-5.3134,6.376-5.5866,6.3333,2.2358,8.8129c2.8892,0.9159,3.7591,2.3557,3.586,5.2401
		c-0.2398,3.9961-0.0602,8.0172-0.0602,12.2489c3.8832-2.1254,5.351-6.2458,7.5769-9.6228c1.608-2.4396,2.8972-2.5297,5.1915-1.1287
		c4.5928,2.8044,9.0024,6.087,14.5616,6.8432c1.2759,0.1736,1.8187,0.8127,2.0624,2.0617c0.4132,2.1179,1.1908,4.1722,1.5128,6.299
		c0.8003,5.2853-2.8962,8.9506-8.0883,8.2685c-1.6036-0.2106-3.2488-0.2905-4.863-0.2046
		c-12.8083,0.6816-25.4879,2.8788-38.3326,3.2285c-2.8294,0.077-4.0686,2.7353-4.7567,4.9504
		c-0.6184,1.991,1.8997,2.2029,3.0979,3.1178c1.6474,1.2579,3.6014,1.1239,5.4725,0.8709c2.641-0.3571,4.7396,0.3628,6.4696,2.4171
		c1.3418,1.5931,3.0037,3.0826,5.234,2.2998c4.9008-1.7202,7.4943,1.1061,10.0178,4.5322c1.2783,1.7355,2.988,3.1487,4.3131,4.8548
		c6.5566,8.4421,9.7216,17.4872,4.4096,27.795c-1.1641,2.2589-0.2147,2.4101,1.7684,2.9863
		c7.0232,2.0403,14.1325,1.5568,21.2763,1.5181c2.8683-0.0156,3.912-1.4559,5.1765-3.5375
		c1.4015-2.3072,0.3141-3.7545-0.9803-5.3868c-0.723-0.9119-1.7172-1.7102-1.6658-3.1292c1.9796-0.579,3.4023,1.686,5.4053,0.9756
		c2.9859-1.059,5.5363,0.1636,8.0226,1.6896c1.6132,0.9902,3.2268,2.0202,4.9514,2.7801c4.1743,1.8392,7.3039-0.2213,7.3149-4.6975
		c0.0032-1.3211,0.0005-2.6422,0.0005-4.5681c1.5975,2.3734,1.4894,4.487,2.0743,6.4061
		c1.6895,5.5432,5.0352,10.2162,8.5126,14.5952c2.2307,2.8091,6.4302,0.8313,9.6944,1.4114
		c1.3293,0.2363,2.6785,0.5685,4.0098,0.5319c1.5543-0.0425,3.527,1.0609,4.3895-1.5339c0.4001-1.204,1.5065-0.4402,1.7922,0.2378
		c2.0254,4.8076,6.5891,5.2972,10.5778,5.2696c8.3245-0.0576,14.1053,2.7062,17.7146,10.6588
		c2.0209,4.4529,10.3911,4.6413,13.4998,1.0361c0.6415,1.8394-2.0051,4.6672,1.6501,5.592
		c5.8572,1.4821,9.3342,6.1512,13.6202,9.8367c6.6909,5.7532,8.7315,12.4571,6.4338,20.9821
		c-1.6975,6.2981-0.7593,7.5718,4.7198,10.7911c1.2994,0.7634,2.2687,0.957,3.0273-0.4244c0.6846-1.2468,3.2921-2.1437,1.455-3.947
		c-3.4132-3.3502-2.3949-7.481-2.634-11.4508c-0.1576-2.6176,0.9879-3.7153,3.3256-2.7591
		c3.3606,1.3746,4.7133,0.0086,5.3721-3.0923c0.1418-0.6675,0.255-1.6734,1.821-1.8729c0.6084,3.0571,3.2518,4.5924,5.5454,6.3992
		c1.2704,1.0008,2.4208,3.6403,4.0158,2.4617c1.6473-1.2174,3.1104-3.4176,3.041-5.9237c-0.026-0.939-0.2798-1.8718-0.4297-2.8074
		c0.1492-0.1446,0.2958-0.2916,0.439-0.4399c0.8701,1.0289,1.6937,2.1017,2.6169,3.0805c2.4106,2.556,5.0797,0.3723,7.6255,0.3273
		c2.36-0.0416,1.3587-1.5406,1.2495-2.8599c-0.159-1.9213,1.4334-1.0963,2.3344-1.087c5.2886,0.0539,7.5139,4.2733,10.1483,7.7679
		c1.2122,1.6081-0.4619,2.997-1.1863,4.3863c-0.8378,1.6067-2.0474,1.2694-3.4567,0.841
		c-3.6333-1.1047-7.1739-2.3956-10.5779-4.1026c-4.4159-2.2144-5.623-1.777-8.0696,2.3436
		c-0.7693,1.2957-1.0835,2.3425,0.8126,2.5731c5.1635,0.628,7.3411,4.5714,9.5261,8.4749c0.8322,1.4867,1.8624,2.1443,3.5893,1.9611
		c6.8521-0.7268,13.7038-1.479,20.5707-2.0361c6.3103-0.5119,12.7256-1.9603,18.9373,1.1624
		c-4.198,4.7067-4.2293,6.4091,0.1154,11.1874c1.3807,1.5186,0.2698,2.1375-0.5781,2.9153
		c-2.5941,2.3794-5.2341,4.7089-7.8641,7.0491c-1.1105,0.988-1.9274,2.0165-0.5404,3.3817c3.811,3.7514,3.5574,7.4266-0.168,11.064
		c-0.287,0.2803-0.4628,0.6714-0.7334,0.9721c-1.6467,1.8297-1.5416,2.9935,0.884,4.2495
		c3.4255,1.7736,7.0236,2.6406,10.7258,3.5058c3.3161,0.775,6.209,1.7002,6.733-3.6253c1.6313,2.117,2.8151,3.7474,4.1009,5.2929
		c1.0923,1.313,1.8859,2.9776,4.0101,3.0801c5.7239,0.2762,11.1284,0.4998,15.0992-5.1735c2.7739-3.9633,6.568-4.3068,11.6167-2.467
		c-1.4041,0.7125-2.7276,1.3912-4.0573,2.0577c-5.4801,2.7473-6.4172,4.7545-3.8912,10.3893
		c1.2749,2.8438,1.7323,4.9637-1.1136,6.9718c-2.1243,1.4987-3.2296,4.2728-6.5447,4.2673
		c-4.9778-0.0082-4.6777,0.1537-4.2734,5.0757c0.2881,3.509,1.3234,4.5076,4.7338,3.4167c2.2908-0.7329,4.849-0.6163,7.1578-1.3112
		c2.066-0.6216,3.264,0.1073,4.6022,1.4752c3.6005,3.6805,7.2061,7.3693,11.0207,10.8217c2.1308,1.9284,2.4664,3.3928,0.5178,5.7047
		c-3.3995,4.0332-6.2129,8.5869-9.7995,12.4299c-5.5686,5.9667-8.553,12.5289-7.5386,20.8603
		c0.2938,2.4124,0.6191,4.3276,2.4992,6.0436c4.7004,4.29,9.1834,8.8177,13.8545,13.141c1.8024,1.6682,3.0587,3.3588,2.5377,5.97
		c-0.381,1.9092,0.5093,2.882,2.4525,2.57c2.6798-0.4301,3.413,1.1648,4.1118,3.3227c3.1259,9.6521,6.4768,19.2318,9.5581,28.8976
		c0.8079,2.5342,2.1419,4.0873,4.549,5.1934c5.0231,2.308,10.3459,4.3348,13.7335,9.0594
		c4.7784,6.6644,11.0571,9.4596,19.1732,8.051c2.3452-0.4069,4.0441,0.4569,4.5672,2.8524
		c1.7291,7.9186,6.4202,11.1644,14.4575,9.5016c2.325-0.4808,4.218,0.2395,5.3156,2.6061
		c2.5318,5.4589,7.0721,8.5399,12.4385,10.9246c6.19,2.7508,6.0867,2.9668,6.3755-3.5871c0.0208-0.4718-0.2094-1.1312,0.8006-1.4158
		c0.782,0.6915,1.6724,1.4686,2.5515,2.2581c5.0043,4.4939,4.9722,4.4559-0.5007,8.8195c-2.2794,1.8174-5.0135,3.3429-5.258,6.7983
		c-0.1026,1.4509-0.015,3.4343-2.0629,3.356c-2.9852-0.1141-6.7484,2.8892-8.7706-0.1827
		c-3.1885-4.8432-7.8296-5.0006-12.3946-5.1216c-3.4742-0.092-4.6416-1.357-5.2416-4.5006
		c-0.8073-4.2299-7.2892-7.5304-11.2445-6.0436c-7.0973,2.668-7.111,2.6773-2.6925,9.0794c1.1937,1.7298,2.0495,4.1259,4.8314,3.593
		c5.6679-1.0857,10.3361,1.4985,13.9761,4.9943c5.3572,5.1451,11.2757,6.7686,18.3154,5.6806
		c1.7596-0.272,3.3275,0.1151,3.8138,2.1069c0.787,3.2244,3.2902,4.0971,6.0602,4.3289c3.3234,0.278,5.0502,2.0489,5.8273,5.132
		c0.6718,2.6657,1.5261,5.1533,4.7416,5.9377c4.0694,0.9927,2.0936,4.124,1.7737,6.3282c-0.3708,2.5549-2.6617,1.3155-3.9724,1.0659
		c-1.9912-0.3794-3.4514-0.6868-4.8826,1.378c-1.6237,2.3423,0.2516,3.4968,1.1227,4.9778
		c1.2733,2.1644,3.5894,3.8567,2.9339,6.8291c-0.6981,3.1656-1.4484,6.3198-2.148,9.4851
		c-0.2893,1.3085-0.8013,2.0271-2.3837,2.1576c-5.5831,0.4607-5.4526,0.5419-5.283,6.1669
		c0.0531,1.7606,1.2864,3.1697,1.1935,5.1832c-1.2782,0-2.3594,0.1-3.4147-0.0231c-1.6328-0.1904-3.7827,0.8725-4.6912-1.3127
		c-0.9357-2.2509-0.7792-4.488,1.1278-6.3715c0.6649-0.6567,1.0037-1.6613,1.7012-2.2639c2.3445-2.0255,1.8068-4.5361,0.0728-6.0073
		c-3.9452-3.3469-3.8025-7.7564-4.0262-12.1191c-0.3289-6.413-0.2444-6.6481-6.5851-6.8497
		c-3.2164-0.1022-5.2693-1.3937-7.2077-3.7009c-1.7665-2.1026-3.032-4.7523-6.1505-6.3589
		c-0.7294,5.8459-0.0564,11.4185-1.1463,16.8225c-0.5906,2.928,0.6595,4.7821,3.061,6.3586
		c3.1646,2.0775,6.0851,4.5236,9.2115,6.6638c1.4597,0.9991,2.121,2.0912,2.3503,3.9136
		c1.4318,11.3856,3.1697,22.7335,4.5133,34.1284c0.3498,2.9666,1.6313,3.4562,3.939,2.6958
		c2.6845-0.8848,4.5209,0.1314,6.5706,1.8257c5.3069,4.387,10.3124,9.264,16.7382,12.0744
		c2.3222,1.0156,2.6129,2.9859,2.8358,4.9452c0.2145,1.8847,0.8994,3.2347,2.8383,3.2524c3.4914,0.0319,5.6656,2.1093,7.8836,4.3868
		c4.7268,4.8539,9.5381,9.6266,14.3712,14.3754c1.3979,1.3735,2.4583,2.8468,2.7764,4.8167
		c2.9678,18.3765,9.8685,35.9985,10.3896,54.8669c0.0909,3.2914-0.1639,5.9889-2.8834,8.3682
		c-0.3168-0.8519-0.6523-1.4594-0.767-2.106c-2.601-14.6595-7.001-28.8837-10.4194-43.3441
		c-0.5351-2.2638-1.6187-3.8894-3.2878-5.3743c-7.485-6.6592-14.6553-13.7056-22.464-19.9565
		c-5.4778-4.3851-8.652-8.9386-6.4532-16.1335c0.3273-1.071,0.8469-3.1017-0.9145-3.4905
		c-1.9915-0.4394-4.6373-1.4236-6.0422,0.7631c-4.2321,6.5877-9.692,12.3295-10.0073,21.1586
		c-0.723,20.2488-1.4033,40.5144-4.697,60.6088c-3.5167,21.4548-6.457,43.0061-9.4774,64.5393
		c-0.9715,6.9263-2.6897,13.8307-1.562,21.0389c1.443-7.4358,5.1174-13.6135,10.1119-19.0607
		c0.7965-0.8687,1.4932-2.9816,3.083-1.549c6.0228,5.4268,12.7865,10.3033,15.3308,18.7432
		c-1.9736,0.2223-3.8493,0.6344-5.7173,0.6022c-3.7949-0.0654-8.1443,2.2211-10.988-2.4258
		c-0.4713-0.7703-1.4456-0.3638-2.2596-0.2218c-3.5151,0.6132-5.0626,2.8826-5.0065,6.2161
		c0.0613,3.6433-1.5817,6.4086-3.6791,9.1937c-1.6506,2.192-4.105,4.0759-3.8187,7.3584
		c0.8705,9.9824-1.2657,19.6501-3.2219,29.3201c-3.2399,16.016-5.5211,32.2175-9.4248,48.1057
		c-5.3831,21.9094-12.0358,43.502-16.3148,65.688c-1.4064,7.2921-2.2721,14.9265-5.6111,21.4996
		c-4.5728,9.0023-9.694,17.7509-15.9047,25.8925c-6.5779,8.6229-13.926,15.2722-25.1183,16.5693
		c-4.0396,0.4683-5.7549,4.9679-2.9489,8.0961c3.4344,3.8285,6.9916,7.7379,13.0262,6.5868c3.6669-0.6996,5.2908,1.1465,5.18,4.5677
		c-0.0859,2.6512,0.8476,4.1781,3.5608,4.1545c2.4651-0.0214,5.5847,1.6149,6.6435-2.4647
		c0.6381-2.4585,2.1602-2.5547,4.3563-1.6331c4.7263,1.9833,9.3754,4.1697,14.4711,5.2271c2.718,0.564,4.4399,7.3265,2.244,9.032
		c-2.6847,2.085-3.1398,4.6785-2.6569,7.5507c0.8785,5.2257-1.1442,8.2146-6.0923,10.0874
		c-4.1221,1.5601-4.4264,5.5884-1.6448,9.0951c2.5787,3.2505,5.7758,5.0513,9.6954,6.0984
		c2.8723,0.7673,4.5768,0.7366,4.8599-2.9102c0.3289-4.2372,2.0268-7.8815,6.1774-10.1785
		c0.5062,2.7139-0.6895,5.3071,0.5742,7.5134c1.9755,3.4492,4.0681,6.6292,9.1129,5.8496c2.8565-0.4414,6.3906-1.199,8.1037,2.6705
		c1.5081,3.4061,4.519,4.1735,7.8542,4.7417c4.2103,0.7172,8.8516,0.282,12.416,3.1333c8.0645,6.4513,17.1852,8.5861,27.2778,7.373
		c1.2023-0.1445,2.457,0.1227,3.6528-0.0465c3.6378-0.5146,5.5124,0.4604,5.2415,4.6543c-0.396,6.1271,2.3395,10.5039,7.71,13.8296
		c4.5579,2.8223,9.2249,5.9507,12.2466,10.5366c2.4223,3.6764,4.5933,3.8157,8.2382,1.7208c3.2185-1.85,6.9722-4.205,10.674-0.3693
		c1.0295,1.0667,2.0372,0.0801,2.9333-0.3965c4.3038-2.2878,8.6407-4.5249,12.8395-6.9949c2.419-1.4231,4.4092-1.2087,6.7699,0.1807
		c5.967,3.5117,11.5233,7.5806,17.0692,11.6984c1.793,1.3313,2.6307,2.8156,3.078,4.9138
		c2.2081,10.3597,12.0629,15.5145,21.9264,11.5079c4.6377-1.884,9.3495-3.6558,13.7795-5.9563
		c3.0233-1.5698,4.9408-1.2468,6.741,1.5591c3.3093,5.1582,8.0177,8.0585,14.0964,9.2585c3.0635,0.6047,4.7797,0.2302,5.8723-2.7798
		c1.0701-2.9486,2.8142-4.5557,6.0261-2.2413c1.4873,1.0719,3.3312,0.9059,5.0952,1.026c10.1155,0.6887,20.23,1.3993,30.3352,2.22
		c2.496,0.2028,3.9836,0.1317,4.0656-3.1389c0.2067-8.2424,0.8265-16.4746,1.3051-24.7095c0.0732-1.2618-0.3152-3.0343,1.9585-2.593
		c1.7798,0.3455,3.5859,0.5631,5.3394,0.9832V251.765C665.3178,254.4002,658.4611,257.3335,651.7265,260.6666z"/>
</g>
</svg>
