<svg width="512" height="512" xmlns="http://www.w3.org/2000/svg">
 <!-- Created with UXWing SVG Editor - https://uxwing.com/svg-icon-editor/ -->

 <g>
  <title>background</title>
  <rect fill="none" id="canvas_background" height="514" width="514" y="-1" x="-1"/>
  <g display="none" overflow="visible" y="0" x="0" height="100%" width="100%" id="canvasGrid">
   <rect fill="url(#gridpattern)" stroke-width="0" y="0" x="0" height="100%" width="100%"/>
  </g>
 </g>
 <g>
  <title>Layer 1</title>
  <defs>
   <style>.cls-1{fill:#4ba042;fill-rule:evenodd;}.cls-2{fill:#212121;}.cls-3{fill:#fff;}</style>
  </defs>
  <g stroke="null" id="svg_8">
   <path stroke="null" id="svg_5" d="m370.263092,281.513184a116.070412,111.765945 0 1 1 -116.070465,111.765991a116.070412,111.765945 0 0 1 116.070465,-111.765991z" class="cls-1"/>
   <path stroke="null" id="svg_6" d="m203.814575,430.789612a11.79951,11.36193 0 1 1 0,22.723877l-166.657696,0a27.49036,26.470881 0 0 1 -27.490359,-26.430573l0,-390.818214a27.406679,26.390301 0 0 1 8.075549,-18.533661a27.19747,26.18885 0 0 1 19.41481,-7.776071l337.457867,0a27.574051,26.55147 0 0 1 27.490356,26.47088l0,199.156136a11.84136,11.40222 0 1 1 -23.64093,0l0,-199.156136a3.7658,3.62615 0 0 0 -1.1297,-2.618889a3.93317,3.78731 0 0 0 -2.719727,-1.128139l-337.457867,0a4.18423,4.02905 0 0 0 -2.7616,1.087849a4.18423,4.02905 0 0 0 -1.087891,2.65918l0,390.616753a3.68212,3.54557 0 0 0 1.129742,2.578613a4.18423,4.02905 0 0 0 2.7616,1.128174l166.615845,0l0,0.040222zm-94.605309,-158.946167l0,-22.965607l174.56588,0l0,22.965607l-174.56588,0zm174.56588,75.06131l0,-23.207367l-69.583679,0l0,23.00589l69.583679,0.201477z" class="cls-2"/>
   <path stroke="null" id="svg_7" d="m303.148132,385.825378l23.682648,-0.322296l1.757446,0.443146a92.304016,88.880928 0 0 1 13.514984,9.145935a91.257957,87.873657 0 0 1 8.703217,8.058167a338.922272,326.353333 0 0 1 27.11377,-36.261444a322.729309,310.760895 0 0 1 33.431976,-33.400879l2.301361,-0.846161l25.858521,0l-5.230347,5.56015a552.317749,531.835144 0 0 0 -43.850708,53.102905a540.811157,520.755188 0 0 0 -35.31485,56.406738l-3.221802,6.04364l-3.012695,-6.124176a153.728455,148.027451 0 0 0 -19.95871,-31.184845a130.673355,125.827347 0 0 0 -27.699585,-24.69812l1.924774,-6.083832l0,0.161072z" class="cls-3"/>
   <rect stroke="null" id="svg_9" height="23" width="174.999992" y="196" x="109" fill-opacity="null" stroke-opacity="null" stroke-width="null" fill="null"/>
   <rect id="svg_10" height="0" width="1" y="107" x="309" fill-opacity="null" stroke-opacity="null" stroke-width="null" stroke="null" fill="null"/>
   <path stroke="null" id="svg_11" d="m142.299988,92.727516l35.031952,0l0,-32.057526l35.936096,0l0,32.057526l35.031952,0l0,32.885307l-35.031952,0l0,32.057175l-35.936096,0l0,-32.057175l-35.031952,0l0,-32.885307z" fill-opacity="null" stroke-opacity="null" stroke-width="null" fill="null"/>
  </g>
 </g>
</svg>