<svg width="500.00000000000006" height="500.00000000000006" xmlns="http://www.w3.org/2000/svg">
 <!-- Created with UXWing SVG Editor - https://uxwing.com/svg-icon-editor/ -->

 <g>
  <title>background</title>
  <rect fill="none" id="canvas_background" height="502" width="502" y="-1" x="-1"/>
  <g display="none" overflow="visible" y="0" x="0" height="100%" width="100%" id="canvasGrid">
   <rect fill="url(#gridpattern)" stroke-width="0" y="1" x="1" height="480" width="640"/>
  </g>
 </g>
 <g>
  <title>Layer 1</title>
  <style type="text/css">.st0{fill-rule:evenodd;clip-rule:evenodd;}</style>
  <g id="svg_7">
   <g transform="matrix(3.728 0 0 3.99328 -26.4531 -30.9956)" id="svg_5">
    <path id="svg_6" d="m35.401722,18.756897c10,0 18.51001,6.37999 21.699997,15.27998c5.580002,-3.130001 12.02,-4.91 18.870007,-4.91c21.349991,0 38.669991,17.320004 38.669991,38.669998c0,1.259995 -0.05999,2.51001 -0.18,3.75c10.710007,1.979996 18.820007,11.37001 18.820007,22.650009c0,12.720001 -10.309998,23.029999 -23.029999,23.029999c-9.189995,0 -17.119995,-5.380005 -20.820007,-13.160004c-4.189987,1.559998 -8.720001,2.410004 -13.459991,2.410004c-21.350002,0 -38.670002,-17.320007 -38.670002,-38.670013c0,-1.029984 0.040009,-2.049988 0.12001,-3.059998c-0.660011,0.059998 -1.339996,0.090012 -2.020012,0.090012c-12.719994,-0.020004 -23.029984,-10.330006 -23.029984,-23.050007c0,-12.719997 10.30999,-23.02998 23.029984,-23.02998l0,0zm44.140003,100.22998c1.239998,-0.220001 2.43,0.62001 2.639992,1.860001c0.220001,1.23999 -0.619995,2.430008 -1.860001,2.639999c-2.449997,0.440002 -4.929993,0.690002 -7.409988,0.770004c-11.91,0.389999 -23.220013,-3.389999 -32.099995,-10.330002c-8.900002,-6.949997 -15.360001,-17.069992 -17.529999,-29.340012c-0.240005,-1.349991 -0.430008,-2.72998 -0.559998,-4.149994l-2.37001,0.300003l-4.739998,0.610001l8.390007,-11.770004l0,0l0,0l10.269989,9.37001l-4.649986,0.599991l-2.380013,0.310013c0.12001,1.329987 0.300003,2.639984 0.529999,3.939987c1.970001,11.110001 7.800003,20.259995 15.840012,26.539993c8.04998,6.290009 18.319984,9.720001 29.149982,9.37001c2.210007,-0.080002 4.480011,-0.309998 6.780006,-0.720001l0,0zm50.169991,-59.970005l-12.109985,-6.829998l4.400002,-1.630009l2.089989,-0.769989c-2.350006,-10.979996 -8.770004,-19.529995 -17.320007,-25.049999c-9.339996,-6.029991 -21.209991,-8.47998 -33.109993,-6.589981c-1.239998,0.199989 -2.409996,-0.650009 -2.610008,-1.889999s0.650009,-2.410012 1.890022,-2.610002c13.029991,-2.07 26.039986,0.619987 36.299995,7.250001c9.36998,6.049988 16.439995,15.359982 19.179993,27.299984l2.360001,-0.87001l4.479996,-1.660004l-5.550003,13.350006l0,0l0,0l0,0zm-19.469986,15.520008c10.849991,0 19.649994,8.799988 19.649994,19.649994c0,10.850006 -8.800003,19.649994 -19.649994,19.649994c-10.850021,0 -19.650002,-8.799988 -19.650002,-19.649994c0,-10.850006 8.79998,-19.649994 19.650002,-19.649994l0,0zm-23.650002,-41.320011c12.979988,4.309998 22.709991,15.730011 24.589989,29.640015l-1.229988,-0.130005c-0.220009,0.939987 -0.420006,0.959995 -0.420006,2.099995c0,1 1.259995,1.669998 1.259995,3.780014c0,0.559998 -1.330002,1.699997 -1.389999,1.889984l-1.970001,-2.309998l0,2.940002l-0.299988,-0.009995l-0.529999,-5.419998l-1.100006,0.349991l-1.309998,-4.030003l-4.309998,4.500004l-0.050011,3.300003l-1.409996,0.949997l-1.5,-8.459995l-0.889992,0.649994l-2.029999,-2.729996l-3.030006,0.089996l-1.160004,-1.330002l-1.190002,0.330002l-2.339996,-2.679993l-0.450005,0.309998l1.450005,3.699997l1.679993,0l0,-0.840012l0.839996,0c0.610016,1.670013 1.260017,0.680008 1.260017,1.680008c0,3.490009 -4.310005,6.060001 -7.140007,6.720005c0.149994,0.630005 0.089996,1.259995 0.839996,1.259995c1.580002,0 0.800003,-0.279999 2.520004,-0.419998c-0.080002,3.570007 -4.089996,7.830002 -5.800003,10.479996l0.770004,5.470016c0.199997,1.189987 -2.470001,2.439987 -3.369995,3.779999l0.439987,2.099991l-1.229996,0.5c-0.220001,2.149994 -2.309998,4.540009 -4.649994,4.540009l-2.520004,0c0,-2.949997 -2.100006,-7.150009 -2.100006,-9.240005c0,-1.770004 0.840004,-2.01001 0.840004,-4.199997c0,-2.020004 -2.099998,-4.930008 -2.099998,-5.460007l0,-3.360001l-1.690002,0c-0.25,-0.940002 -0.100006,-1.259995 -1.259995,-1.259995l-0.419998,0c-1.829998,0 -1.52,0.839996 -3.360012,0.839996l-1.679993,0c-1.509995,0 -4.199997,-4.860001 -4.199997,-5.459991l0,-5.040012c0,-2.169998 1.990005,-4.539993 3.360001,-5.459988l0,-2.100006l1.889999,-1.920002l1.050003,-0.180008c2.25,0 1.98999,-1.259995 3.359997,-1.259995l3.779999,0l0,2.940002l4.150002,1.769989l0.389999,-1.789993c1.879997,0.440006 2.369995,1.279999 4.689995,1.279999l0.839996,0c1.589996,0 1.680008,-2.110001 1.680008,-3.779999l-3.360001,0.330002l-1.460007,-3.190002l-1.449997,0.389999c0.259995,1.139999 0.399994,0.669998 0.399994,1.630005c0,0.569992 -0.470001,0.629993 -0.839996,0.839996l-1.449997,-3.690002l-3.130005,-2.229996l-0.409988,0.410004l2.659988,2.799988c-0.349991,1 -0.399994,3.910004 -1.860001,1.880005l1.37001,-0.66l-3.419998,-3.589996l-2.050003,0.799999l-2.02,1.940002c-0.209991,1.559998 -0.639999,2.35001 -2.270004,2.35001c-1.089996,0 -0.429993,-0.280018 -2.099991,-0.420017l0,-4.199997l3.779999,0l-1.220001,-2.800003l-0.449997,0.280014l0,-0.850006l6.129986,-2.830002c-0.119995,-0.880005 -0.259995,-0.410004 -0.259995,-1.369995c0,-0.059998 0.410004,-0.830002 0.419998,-0.840012l1.589996,0.980011l-0.37999,-1.809998l-2.449997,0.5l-0.450012,-2.200008c1.940002,-1.020008 6.210007,-4.619995 7.570015,-4.619995l1.259987,0c1.330002,0 4.880005,1.309994 5.460007,2.100006l-3.369995,-0.340015l2.5,2.060013l0.23999,-0.880005l1.87001,-0.51001l0.019989,-1.169998l0.840012,0l0,1.260014l4.739998,-1.370014l0,0l0,0zm-41.889996,54.560017c-2.309998,-3.5 -4,-7.389999 -4.979996,-11.470001l6.809998,3.279984l0.029999,2.030014c0,0.75 -1.270004,2.330002 -1.680008,2.939987l-0.179993,3.220016l0,0l0,0zm-9.300011,-65.639992c10.850014,0 19.649994,8.79998 19.649994,19.649982c0,10.850006 -8.79998,19.649994 -19.649994,19.649994c-10.849983,0 -19.649994,-8.799988 -19.649994,-19.649994c0,-10.850002 8.800011,-19.649982 19.649994,-19.649982l0,0z" class="st0"/>
    <text xml:space="preserve" text-anchor="start" font-family="Helvetica, Arial, sans-serif" font-size="24" id="svg_8" y="49.810892" x="24.841156" fill-opacity="null" stroke-opacity="null" stroke-width="0" stroke="null" fill="#000000">Fr</text>
   </g>
  </g>
  <text stroke="null" transform="matrix(3.51945 0 0 4.11063 -818.813 -873.54)" xml:space="preserve" text-anchor="start" font-family="Helvetica, Arial, sans-serif" font-size="24" id="svg_10" y="305.346037" x="325.037602" fill-opacity="null" stroke-opacity="null" stroke-width="0" fill="#000000">UK</text>
  <!-- Created with UXWing SVG Editor - https://uxwing.com/svg-icon-editor/ -->
 </g>
</svg>