<?xml version="1.0" encoding="utf-8"?>
<!-- Generator: Adobe Illustrator 26.0.1, SVG Export Plug-In . SVG Version: 6.00 Build 0)  -->
<svg version="1.1" id="Layer_1" xmlns="http://www.w3.org/2000/svg" xmlns:xlink="http://www.w3.org/1999/xlink" x="0px" y="0px"
	 viewBox="0 0 1031 457.91" style="enable-background:new 0 0 1031 457.91;" xml:space="preserve">
<style type="text/css">
	.st0{fill:#ED1C24;}
	.st1{clip-path:url(#SVGID_00000098202370581353672410000009715897249217148835_);fill:#ED1C24;}
	.st2{clip-path:url(#SVGID_00000098202370581353672410000009715897249217148835_);fill:#085890;}
	
		.st3{clip-path:url(#SVGID_00000098202370581353672410000009715897249217148835_);fill:none;stroke:#ED1C24;stroke-width:5;stroke-miterlimit:10;}
	
		.st4{clip-path:url(#SVGID_00000098202370581353672410000009715897249217148835_);fill:none;stroke:#085890;stroke-width:5;stroke-miterlimit:10;}
</style>
<polyline class="st0" points="92.03,196.89 97.99,180.7 114.18,186.66 "/>
<g>
	<defs>
		<rect id="SVGID_1_" width="1031" height="457.91"/>
	</defs>
	<clipPath id="SVGID_00000000912245670909493010000010871281767668281782_">
		<use xlink:href="#SVGID_1_"  style="overflow:visible;"/>
	</clipPath>
	<path style="clip-path:url(#SVGID_00000000912245670909493010000010871281767668281782_);fill:#ED1C24;" d="M159.72,246.02
		c-8.94-3.06-15.55-5.58-19.19-7.01l21.12,19.35c3.73,17.77,11.43,35,23.29,50.33c41.89,54.1,119.7,64.01,173.8,22.12
		c19.6-15.17,33.36-35.07,41-56.84c41.7-24.42,41.99-42.8,41.99-42.8C375.32,297.01,248.52,276.44,159.72,246.02"/>
	<path style="clip-path:url(#SVGID_00000000912245670909493010000010871281767668281782_);fill:#ED1C24;" d="M122.3,203.4
		c-13.14-7.28-26.19-21.99-25.42-20.26c32.16,72.16,274.4,109.54,317.17,45.54c10.78-16.14,7.56-35.71-1.29-53.16
		c0.76,4.44,0.83,13.63-3.09,23.21c-9.06,22.17-35.44,34.73-58.8,39.31c-34.44,3.86-89.15,5.68-146.14-9.73
		c-18.1-4.89-37.44-12-36.55-11.69c48.55,16.96,225.19,36.12,224.5-41.18c-40.01-76.3-143.44-89.61-201.46-25.89
		c-17.83,19.59-28.75,44.27-31.49,70.41C147.21,215.55,134.11,209.95,122.3,203.4 M263.29,135.16
		c55.82-6.01,108.11,15.01,108.26,43.38c0.14,27.89-50.33,49.43-105.94,44.65c45.83-2.25,81.67-21.35,81.56-44.4
		C347.04,155.42,310.03,136.49,263.29,135.16"/>
	<path style="clip-path:url(#SVGID_00000000912245670909493010000010871281767668281782_);fill:#085890;" d="M202.51,129.02
		c73.99-57.28,183-20.67,207.15,69.72c4.83-11.81,3.31-21.95,3.12-23.07c-37.33-84.84-144.35-111.11-216.77-55.04
		c-30.45,23.57-48.63,57.17-53.57,92.6c3.33,1.43,6.71,2.8,10.15,4.12C156.61,183.59,173.58,151.42,202.51,129.02"/>
	<path style="clip-path:url(#SVGID_00000000912245670909493010000010871281767668281782_);fill:#085890;" d="M179.06,313.24
		c-12.43-16.06-20.54-34.11-24.53-52.76l-12.62-11.57c2.8,24.99,12.27,49.53,28.75,70.82c47.91,61.88,137.23,73.25,199.12,25.34
		c25.95-20.09,42.98-47.47,50.52-77.05c-4.04,3.03-8.67,6.17-13.96,9.4c-8.16,22.7-22.61,43.42-43.05,59.25
		C306.04,381.02,223.39,370.5,179.06,313.24"/>
	<polyline style="clip-path:url(#SVGID_00000000912245670909493010000010871281767668281782_);fill:#ED1C24;" points="
		425.28,233.81 442.1,229.96 445.95,246.78 	"/>
	<polygon style="clip-path:url(#SVGID_00000000912245670909493010000010871281767668281782_);fill:#ED1C24;" points="527.51,106.62 
		529.57,148.94 525.45,148.94 523.92,117.84 507.58,138.65 491.24,117.84 489.71,148.94 485.6,148.94 487.65,106.62 507.58,131.95 	
		"/>
	
		<polygon style="clip-path:url(#SVGID_00000000912245670909493010000010871281767668281782_);fill:none;stroke:#ED1C24;stroke-width:5;stroke-miterlimit:10;" points="
		527.51,106.62 529.57,148.94 525.45,148.94 523.92,117.84 507.58,138.65 491.24,117.84 489.71,148.94 485.6,148.94 487.65,106.62 
		507.58,131.95 	"/>
	<path style="clip-path:url(#SVGID_00000000912245670909493010000010871281767668281782_);fill:#085890;" d="M542.2,132.08v0.81
		c0,1.83,0.35,3.56,1.06,5.18c0.7,1.62,1.66,3.03,2.86,4.23c1.2,1.2,2.61,2.15,4.23,2.86c1.62,0.71,3.35,1.06,5.18,1.06
		c4.44,0,7.99-1.59,10.66-4.77l2.39,2.03c-1.5,1.86-3.35,3.3-5.54,4.32c-2.28,1.05-4.78,1.57-7.51,1.57c-2.22,0-4.36-0.43-6.44-1.3
		c-1.95-0.81-3.69-1.98-5.22-3.51c-0.75-0.78-1.42-1.61-2-2.48c-0.59-0.87-1.09-1.79-1.51-2.74c-0.87-2.07-1.31-4.22-1.31-6.44
		c0-2.25,0.37-4.37,1.1-6.37c0.74-1.99,1.81-3.74,3.22-5.24c1.41-1.47,3.14-2.65,5.17-3.56c2.04-0.84,4.32-1.26,6.84-1.26
		c2.13,0,4.1,0.36,5.9,1.08c1.71,0.66,3.24,1.67,4.59,3.01c1.29,1.26,2.29,2.74,3.01,4.43c0.72,1.69,1.12,3.5,1.22,5.42l0.09,1.66
		H542.2z M555.38,119.62c-3.63,0-6.46,0.85-8.48,2.54c-2.02,1.69-3.43,4.1-4.21,7.22h24.12c-0.18-1.5-0.6-2.86-1.26-4.07
		c-0.66-1.22-1.5-2.24-2.52-3.08c-1.02-0.84-2.18-1.49-3.49-1.93C558.24,119.84,556.85,119.62,555.38,119.62"/>
	
		<path style="clip-path:url(#SVGID_00000000912245670909493010000010871281767668281782_);fill:none;stroke:#085890;stroke-width:5;stroke-miterlimit:10;" d="
		M542.2,132.08v0.81c0,1.83,0.35,3.56,1.06,5.18c0.7,1.62,1.66,3.03,2.86,4.23c1.2,1.2,2.61,2.15,4.23,2.86
		c1.62,0.71,3.35,1.06,5.18,1.06c4.44,0,7.99-1.59,10.66-4.77l2.39,2.03c-1.5,1.86-3.35,3.3-5.54,4.32
		c-2.28,1.05-4.78,1.57-7.51,1.57c-2.22,0-4.36-0.43-6.44-1.3c-1.95-0.81-3.69-1.98-5.22-3.51c-0.75-0.78-1.42-1.61-2-2.48
		c-0.59-0.87-1.09-1.79-1.51-2.74c-0.87-2.07-1.31-4.22-1.31-6.44c0-2.25,0.37-4.37,1.1-6.37c0.74-1.99,1.81-3.74,3.22-5.24
		c1.41-1.47,3.14-2.65,5.17-3.56c2.04-0.84,4.32-1.26,6.84-1.26c2.13,0,4.1,0.36,5.9,1.08c1.71,0.66,3.24,1.67,4.59,3.01
		c1.29,1.26,2.29,2.74,3.01,4.43c0.72,1.69,1.12,3.5,1.22,5.42l0.09,1.66H542.2z M555.38,119.62c-3.63,0-6.46,0.85-8.48,2.54
		c-2.02,1.69-3.43,4.1-4.21,7.22h24.12c-0.18-1.5-0.6-2.86-1.26-4.07c-0.66-1.22-1.5-2.24-2.52-3.08c-1.02-0.84-2.18-1.49-3.49-1.93
		C558.24,119.84,556.85,119.62,555.38,119.62z"/>
	<path style="clip-path:url(#SVGID_00000000912245670909493010000010871281767668281782_);fill:#085890;" d="M598.31,121.55
		c1.44,1.44,2.58,3.14,3.42,5.08c0.84,1.95,1.26,4.04,1.26,6.26s-0.42,4.3-1.26,6.26c-0.81,1.95-1.95,3.66-3.42,5.13
		c-1.53,1.5-3.24,2.64-5.13,3.42c-1.95,0.84-4.02,1.26-6.21,1.26h-9.59v-32.09h9.59c2.19,0,4.26,0.42,6.21,1.26
		C595.13,118.94,596.84,120.08,598.31,121.55 M586.97,145.81c1.77,0,3.44-0.34,4.99-1.01c1.56-0.67,2.93-1.6,4.1-2.77
		c1.17-1.17,2.09-2.54,2.77-4.12c0.67-1.58,1.01-3.25,1.01-5.02s-0.34-3.43-1.01-5c-0.68-1.56-1.6-2.92-2.77-4.1
		c-1.17-1.17-2.54-2.09-4.1-2.77c-1.56-0.68-3.22-1.01-4.99-1.01h-6.44v25.78H586.97z"/>
	
		<path style="clip-path:url(#SVGID_00000000912245670909493010000010871281767668281782_);fill:none;stroke:#085890;stroke-width:5;stroke-miterlimit:10;" d="
		M598.31,121.55c1.44,1.44,2.58,3.14,3.42,5.08c0.84,1.95,1.26,4.04,1.26,6.26s-0.42,4.3-1.26,6.26c-0.81,1.95-1.95,3.66-3.42,5.13
		c-1.53,1.5-3.24,2.64-5.13,3.42c-1.95,0.84-4.02,1.26-6.21,1.26h-9.59v-32.09h9.59c2.19,0,4.26,0.42,6.21,1.26
		C595.13,118.94,596.84,120.08,598.31,121.55z M586.97,145.81c1.77,0,3.44-0.34,4.99-1.01c1.56-0.67,2.93-1.6,4.1-2.77
		c1.17-1.17,2.09-2.54,2.77-4.12c0.67-1.58,1.01-3.25,1.01-5.02s-0.34-3.43-1.01-5c-0.68-1.56-1.6-2.92-2.77-4.1
		c-1.17-1.17-2.54-2.09-4.1-2.77c-1.56-0.68-3.22-1.01-4.99-1.01h-6.44v25.78H586.97z"/>
	
		<rect x="610.19" y="116.83" style="clip-path:url(#SVGID_00000000912245670909493010000010871281767668281782_);fill:#085890;" width="3.15" height="32.13"/>
	
		<rect x="610.19" y="116.83" style="clip-path:url(#SVGID_00000000912245670909493010000010871281767668281782_);fill:none;stroke:#085890;stroke-width:5;stroke-miterlimit:10;" width="3.15" height="32.13"/>
	<path style="clip-path:url(#SVGID_00000000912245670909493010000010871281767668281782_);fill:#085890;" d="M636.92,119.66
		c-1.83,0-3.55,0.35-5.15,1.04c-1.61,0.69-3.01,1.64-4.21,2.83c-1.2,1.2-2.15,2.6-2.83,4.21c-0.69,1.61-1.04,3.32-1.04,5.15
		s0.34,3.55,1.04,5.15c0.69,1.61,1.63,3.01,2.83,4.21c1.2,1.2,2.6,2.15,4.21,2.83c1.6,0.69,3.32,1.04,5.15,1.04
		c1.53,0,3-0.25,4.41-0.74c1.41-0.49,2.71-1.22,3.91-2.18l1.98,2.48c-1.47,1.14-3.05,2.02-4.73,2.65c-1.8,0.63-3.66,0.95-5.58,0.95
		c-2.25,0-4.37-0.42-6.35-1.26c-2.01-0.87-3.75-2.04-5.22-3.51c-1.53-1.53-2.7-3.27-3.51-5.22c-0.87-2.07-1.31-4.2-1.31-6.39
		c0-2.22,0.43-4.34,1.31-6.35c0.81-2.01,1.98-3.75,3.51-5.22c1.47-1.53,3.21-2.7,5.22-3.51c2.07-0.87,4.19-1.31,6.35-1.31
		c1.95,0,3.81,0.33,5.58,0.99c1.68,0.57,3.26,1.46,4.73,2.65l-1.98,2.43c-1.2-0.96-2.51-1.69-3.91-2.18
		C639.92,119.91,638.45,119.66,636.92,119.66"/>
	
		<path style="clip-path:url(#SVGID_00000000912245670909493010000010871281767668281782_);fill:none;stroke:#085890;stroke-width:5;stroke-miterlimit:10;" d="
		M636.92,119.66c-1.83,0-3.55,0.35-5.15,1.04c-1.61,0.69-3.01,1.64-4.21,2.83c-1.2,1.2-2.15,2.6-2.83,4.21
		c-0.69,1.61-1.04,3.32-1.04,5.15s0.34,3.55,1.04,5.15c0.69,1.61,1.63,3.01,2.83,4.21c1.2,1.2,2.6,2.15,4.21,2.83
		c1.6,0.69,3.32,1.04,5.15,1.04c1.53,0,3-0.25,4.41-0.74c1.41-0.49,2.71-1.22,3.91-2.18l1.98,2.48c-1.47,1.14-3.05,2.02-4.73,2.65
		c-1.8,0.63-3.66,0.95-5.58,0.95c-2.25,0-4.37-0.42-6.35-1.26c-2.01-0.87-3.75-2.04-5.22-3.51c-1.53-1.53-2.7-3.27-3.51-5.22
		c-0.87-2.07-1.31-4.2-1.31-6.39c0-2.22,0.43-4.34,1.31-6.35c0.81-2.01,1.98-3.75,3.51-5.22c1.47-1.53,3.21-2.7,5.22-3.51
		c2.07-0.87,4.19-1.31,6.35-1.31c1.95,0,3.81,0.33,5.58,0.99c1.68,0.57,3.26,1.46,4.73,2.65l-1.98,2.43
		c-1.2-0.96-2.51-1.69-3.91-2.18C639.92,119.91,638.45,119.66,636.92,119.66z"/>
	<path style="clip-path:url(#SVGID_00000000912245670909493010000010871281767668281782_);fill:#085890;" d="M669.01,116.87
		c1.56,0,3.04,0.29,4.46,0.86c1.41,0.57,2.67,1.41,3.78,2.52c1.08,1.11,1.91,2.37,2.5,3.78c0.58,1.41,0.88,2.9,0.88,4.46v20.47
		h-3.15v-2.7c-0.6,0.39-1.28,0.78-2.05,1.17c-0.76,0.39-1.6,0.75-2.52,1.08c-0.92,0.33-1.91,0.6-2.99,0.81
		c-1.08,0.21-2.22,0.32-3.42,0.32c-3.27,0-5.93-0.94-7.97-2.83c-1.05-0.99-1.84-2.18-2.39-3.58c-0.54-1.4-0.81-2.95-0.81-4.66
		c0-1.59,0.29-3.04,0.85-4.37c0.57-1.35,1.43-2.47,2.57-3.38c2.19-1.77,5.27-2.65,9.23-2.65c1.95,0,3.76,0.21,5.42,0.63
		c1.66,0.42,3.02,0.83,4.07,1.21v-1.76c0-1.17-0.23-2.26-0.67-3.28c-0.45-1.02-1.06-1.91-1.82-2.68c-0.76-0.76-1.66-1.37-2.68-1.82
		c-1.02-0.45-2.12-0.67-3.29-0.67c-1.53,0-2.94,0.09-4.23,0.27s-2.41,0.38-3.38,0.61c-0.96,0.22-1.99,0.52-3.1,0.88l-1.17-2.7
		c0.06-0.03,0.4-0.15,1.01-0.36c0.61-0.21,1.45-0.43,2.5-0.68c1.05-0.24,2.29-0.46,3.71-0.65
		C665.77,116.97,667.33,116.87,669.01,116.87 M666.94,147.16c1.2,0,2.34-0.14,3.42-0.4c1.08-0.27,2.07-0.59,2.97-0.97
		s1.7-0.78,2.41-1.21c0.7-0.43,1.28-0.83,1.73-1.19v-11.07c-0.42-0.15-0.95-0.32-1.58-0.52s-1.33-0.38-2.09-0.54
		c-0.76-0.17-1.59-0.31-2.47-0.43c-0.89-0.12-1.79-0.18-2.72-0.18c-1.41,0-2.73,0.16-3.96,0.49c-1.23,0.33-2.3,0.82-3.22,1.46
		c-0.91,0.65-1.63,1.46-2.16,2.45c-0.52,0.99-0.79,2.16-0.79,3.51c0,1.26,0.19,2.41,0.58,3.46c0.39,1.05,0.95,1.96,1.69,2.72
		c0.73,0.76,1.63,1.36,2.68,1.78C664.48,146.95,665.65,147.16,666.94,147.16"/>
	
		<path style="clip-path:url(#SVGID_00000000912245670909493010000010871281767668281782_);fill:none;stroke:#085890;stroke-width:5;stroke-miterlimit:10;" d="
		M669.01,116.87c1.56,0,3.04,0.29,4.46,0.86c1.41,0.57,2.67,1.41,3.78,2.52c1.08,1.11,1.91,2.37,2.5,3.78
		c0.58,1.41,0.88,2.9,0.88,4.46v20.47h-3.15v-2.7c-0.6,0.39-1.28,0.78-2.05,1.17c-0.76,0.39-1.6,0.75-2.52,1.08
		c-0.92,0.33-1.91,0.6-2.99,0.81c-1.08,0.21-2.22,0.32-3.42,0.32c-3.27,0-5.93-0.94-7.97-2.83c-1.05-0.99-1.84-2.18-2.39-3.58
		c-0.54-1.4-0.81-2.95-0.81-4.66c0-1.59,0.29-3.04,0.85-4.37c0.57-1.35,1.43-2.47,2.57-3.38c2.19-1.77,5.27-2.65,9.23-2.65
		c1.95,0,3.76,0.21,5.42,0.63c1.66,0.42,3.02,0.83,4.07,1.21v-1.76c0-1.17-0.23-2.26-0.67-3.28c-0.45-1.02-1.06-1.91-1.82-2.68
		c-0.76-0.76-1.66-1.37-2.68-1.82c-1.02-0.45-2.12-0.67-3.29-0.67c-1.53,0-2.94,0.09-4.23,0.27s-2.41,0.38-3.38,0.61
		c-0.96,0.22-1.99,0.52-3.1,0.88l-1.17-2.7c0.06-0.03,0.4-0.15,1.01-0.36c0.61-0.21,1.45-0.43,2.5-0.68
		c1.05-0.24,2.29-0.46,3.71-0.65C665.77,116.97,667.33,116.87,669.01,116.87z M666.94,147.16c1.2,0,2.34-0.14,3.42-0.4
		c1.08-0.27,2.07-0.59,2.97-0.97s1.7-0.78,2.41-1.21c0.7-0.43,1.28-0.83,1.73-1.19v-11.07c-0.42-0.15-0.95-0.32-1.58-0.52
		s-1.33-0.38-2.09-0.54c-0.76-0.17-1.59-0.31-2.47-0.43c-0.89-0.12-1.79-0.18-2.72-0.18c-1.41,0-2.73,0.16-3.96,0.49
		c-1.23,0.33-2.3,0.82-3.22,1.46c-0.91,0.65-1.63,1.46-2.16,2.45c-0.52,0.99-0.79,2.16-0.79,3.51c0,1.26,0.19,2.41,0.58,3.46
		c0.39,1.05,0.95,1.96,1.69,2.72c0.73,0.76,1.63,1.36,2.68,1.78C664.48,146.95,665.65,147.16,666.94,147.16z"/>
	<polygon style="clip-path:url(#SVGID_00000000912245670909493010000010871281767668281782_);fill:#085890;" points="691.87,145.81 
		705.59,145.81 705.14,148.96 688.72,148.96 688.72,116.83 691.87,116.83 	"/>
	
		<polygon style="clip-path:url(#SVGID_00000000912245670909493010000010871281767668281782_);fill:none;stroke:#085890;stroke-width:5;stroke-miterlimit:10;" points="
		691.87,145.81 705.59,145.81 705.14,148.96 688.72,148.96 688.72,116.83 691.87,116.83 	"/>
	<path style="clip-path:url(#SVGID_00000000912245670909493010000010871281767668281782_);fill:#085890;" d="M735.47,124.43
		c0,1.26,0.43,2.32,1.28,3.17c0.86,0.86,1.91,1.28,3.17,1.28h13.86v3.15h-3.83v6.88c0,1.35-0.26,2.63-0.76,3.85
		c-0.51,1.21-1.25,2.3-2.21,3.26c-0.96,0.96-2.04,1.69-3.24,2.18c-1.2,0.5-2.47,0.74-3.82,0.74c-1.35,0-2.63-0.25-3.85-0.74
		c-1.21-0.49-2.3-1.22-3.26-2.18c-0.96-0.96-1.69-2.05-2.18-3.26c-0.49-1.21-0.74-2.5-0.74-3.85s0.25-2.63,0.74-3.85
		c0.49-1.21,1.22-2.3,2.18-3.26c0.63-0.63,1.35-1.17,2.16-1.62c-0.81-0.69-1.46-1.54-1.93-2.54c-0.48-1-0.72-2.08-0.72-3.22
		c0-1.05,0.22-2.04,0.65-2.97c0.43-0.93,1.06-1.75,1.87-2.47c1.62-1.44,3.66-2.16,6.12-2.16c1.11,0,2.15,0.15,3.13,0.45
		c0.97,0.3,1.85,0.7,2.63,1.21c0.93,0.66,1.62,1.44,2.07,2.34c0.54,0.96,0.81,2.05,0.81,3.28h-3.15c0-1.29-0.51-2.29-1.53-3.01
		c-0.51-0.36-1.1-0.64-1.78-0.83c-0.67-0.19-1.4-0.29-2.18-0.29c-1.62,0-2.94,0.42-3.96,1.26
		C735.98,122.08,735.47,123.14,735.47,124.43 M739.92,132.04c-0.96,0-1.86,0.18-2.7,0.54c-0.84,0.36-1.57,0.85-2.18,1.49
		c-0.61,0.63-1.1,1.37-1.46,2.21c-0.36,0.84-0.54,1.72-0.54,2.65c0,0.96,0.18,1.85,0.54,2.68c0.36,0.83,0.85,1.55,1.46,2.18
		c0.61,0.63,1.34,1.12,2.18,1.49c0.84,0.36,1.74,0.54,2.7,0.54c0.93,0,1.81-0.18,2.65-0.54c0.84-0.36,1.58-0.85,2.21-1.49
		s1.12-1.36,1.49-2.18c0.36-0.82,0.54-1.72,0.54-2.68v-6.88H739.92z"/>
	
		<path style="clip-path:url(#SVGID_00000000912245670909493010000010871281767668281782_);fill:none;stroke:#085890;stroke-width:5;stroke-miterlimit:10;" d="
		M735.47,124.43c0,1.26,0.43,2.32,1.28,3.17c0.86,0.86,1.91,1.28,3.17,1.28h13.86v3.15h-3.83v6.88c0,1.35-0.26,2.63-0.76,3.85
		c-0.51,1.21-1.25,2.3-2.21,3.26c-0.96,0.96-2.04,1.69-3.24,2.18c-1.2,0.5-2.47,0.74-3.82,0.74c-1.35,0-2.63-0.25-3.85-0.74
		c-1.21-0.49-2.3-1.22-3.26-2.18c-0.96-0.96-1.69-2.05-2.18-3.26c-0.49-1.21-0.74-2.5-0.74-3.85s0.25-2.63,0.74-3.85
		c0.49-1.21,1.22-2.3,2.18-3.26c0.63-0.63,1.35-1.17,2.16-1.62c-0.81-0.69-1.46-1.54-1.93-2.54c-0.48-1-0.72-2.08-0.72-3.22
		c0-1.05,0.22-2.04,0.65-2.97c0.43-0.93,1.06-1.75,1.87-2.47c1.62-1.44,3.66-2.16,6.12-2.16c1.11,0,2.15,0.15,3.13,0.45
		c0.97,0.3,1.85,0.7,2.63,1.21c0.93,0.66,1.62,1.44,2.07,2.34c0.54,0.96,0.81,2.05,0.81,3.28h-3.15c0-1.29-0.51-2.29-1.53-3.01
		c-0.51-0.36-1.1-0.64-1.78-0.83c-0.67-0.19-1.4-0.29-2.18-0.29c-1.62,0-2.94,0.42-3.96,1.26
		C735.98,122.08,735.47,123.14,735.47,124.43z M739.92,132.04c-0.96,0-1.86,0.18-2.7,0.54c-0.84,0.36-1.57,0.85-2.18,1.49
		c-0.61,0.63-1.1,1.37-1.46,2.21c-0.36,0.84-0.54,1.72-0.54,2.65c0,0.96,0.18,1.85,0.54,2.68c0.36,0.83,0.85,1.55,1.46,2.18
		c0.61,0.63,1.34,1.12,2.18,1.49c0.84,0.36,1.74,0.54,2.7,0.54c0.93,0,1.81-0.18,2.65-0.54c0.84-0.36,1.58-0.85,2.21-1.49
		s1.12-1.36,1.49-2.18c0.36-0.82,0.54-1.72,0.54-2.68v-6.88H739.92z"/>
	<path style="clip-path:url(#SVGID_00000000912245670909493010000010871281767668281782_);fill:#ED1C24;" d="M503,177.57
		c1.92,0,3.75,0.35,5.5,1.06c1.74,0.71,3.3,1.74,4.67,3.12c1.37,1.37,2.41,2.93,3.12,4.67c0.71,1.74,1.06,3.58,1.06,5.5
		c0,1.92-0.35,3.75-1.06,5.5c-0.71,1.74-1.74,3.3-3.12,4.67c-1.37,1.37-2.93,2.42-4.67,3.15c-1.74,0.73-3.58,1.09-5.5,1.09h-13.29
		v13.17h-4.12v-41.91H503z M503,202.2c1.41,0,2.73-0.27,3.97-0.82c1.23-0.55,2.32-1.28,3.26-2.21c0.94-0.92,1.68-2.01,2.21-3.26
		c0.53-1.25,0.79-2.59,0.79-4s-0.26-2.73-0.79-3.97c-0.53-1.23-1.26-2.32-2.21-3.26c-0.94-0.94-2.03-1.68-3.26-2.2
		c-1.24-0.53-2.56-0.79-3.97-0.79h-13.29v20.52H503z"/>
	
		<path style="clip-path:url(#SVGID_00000000912245670909493010000010871281767668281782_);fill:none;stroke:#ED1C24;stroke-width:5;stroke-miterlimit:10;" d="
		M503,177.57c1.92,0,3.75,0.35,5.5,1.06c1.74,0.71,3.3,1.74,4.67,3.12c1.37,1.37,2.41,2.93,3.12,4.67c0.71,1.74,1.06,3.58,1.06,5.5
		c0,1.92-0.35,3.75-1.06,5.5c-0.71,1.74-1.74,3.3-3.12,4.67c-1.37,1.37-2.93,2.42-4.67,3.15c-1.74,0.73-3.58,1.09-5.5,1.09h-13.29
		v13.17h-4.12v-41.91H503z M503,202.2c1.41,0,2.73-0.27,3.97-0.82c1.23-0.55,2.32-1.28,3.26-2.21c0.94-0.92,1.68-2.01,2.21-3.26
		c0.53-1.25,0.79-2.59,0.79-4s-0.26-2.73-0.79-3.97c-0.53-1.23-1.26-2.32-2.21-3.26c-0.94-0.94-2.03-1.68-3.26-2.2
		c-1.24-0.53-2.56-0.79-3.97-0.79h-13.29v20.52H503z"/>
	<polygon style="clip-path:url(#SVGID_00000000912245670909493010000010871281767668281782_);fill:#085890;" points="549.27,187.37 
		552.42,187.37 552.42,219.5 549.27,219.5 549.27,204.38 529.97,204.38 529.97,219.5 526.82,219.5 526.82,187.37 529.97,187.37 
		529.97,201.23 549.27,201.23 	"/>
	
		<polygon style="clip-path:url(#SVGID_00000000912245670909493010000010871281767668281782_);fill:none;stroke:#085890;stroke-width:5;stroke-miterlimit:10;" points="
		549.27,187.37 552.42,187.37 552.42,219.5 549.27,219.5 549.27,204.38 529.97,204.38 529.97,219.5 526.82,219.5 526.82,187.37 
		529.97,187.37 529.97,201.23 549.27,201.23 	"/>
	<path style="clip-path:url(#SVGID_00000000912245670909493010000010871281767668281782_);fill:#085890;" d="M573.3,187.41
		c1.56,0,3.04,0.28,4.46,0.85c1.41,0.57,2.67,1.41,3.78,2.52c1.08,1.11,1.91,2.37,2.5,3.78c0.58,1.41,0.88,2.9,0.88,4.46v20.47
		h-3.15v-2.7c-0.6,0.39-1.28,0.78-2.05,1.17c-0.76,0.39-1.61,0.75-2.52,1.08c-0.92,0.33-1.91,0.6-2.99,0.81
		c-1.08,0.21-2.22,0.32-3.42,0.32c-3.27,0-5.92-0.95-7.97-2.84c-1.05-0.99-1.84-2.18-2.39-3.58c-0.54-1.4-0.81-2.95-0.81-4.66
		c0-1.59,0.29-3.04,0.86-4.36c0.57-1.35,1.42-2.48,2.57-3.38c2.19-1.77,5.26-2.65,9.22-2.65c1.95,0,3.76,0.21,5.42,0.63
		c1.66,0.42,3.02,0.83,4.07,1.22v-1.76c0-1.17-0.22-2.26-0.67-3.29c-0.45-1.02-1.06-1.91-1.82-2.68c-0.76-0.76-1.66-1.37-2.68-1.82
		c-1.02-0.45-2.11-0.68-3.29-0.68c-1.53,0-2.94,0.09-4.23,0.27c-1.29,0.18-2.41,0.38-3.38,0.61c-0.96,0.23-1.99,0.52-3.1,0.88
		l-1.17-2.7c0.06-0.03,0.4-0.15,1.01-0.36c0.61-0.21,1.45-0.43,2.5-0.68c1.05-0.24,2.29-0.46,3.71-0.65
		C570.07,187.51,571.62,187.41,573.3,187.41 M571.23,217.7c1.2,0,2.34-0.13,3.42-0.4c1.08-0.27,2.07-0.59,2.97-0.97
		c0.9-0.38,1.7-0.78,2.41-1.21c0.7-0.43,1.28-0.83,1.73-1.19v-11.07c-0.42-0.15-0.95-0.32-1.58-0.52c-0.63-0.2-1.33-0.38-2.09-0.54
		c-0.76-0.16-1.59-0.31-2.47-0.43c-0.89-0.12-1.79-0.18-2.72-0.18c-1.41,0-2.73,0.17-3.96,0.5c-1.23,0.33-2.3,0.82-3.22,1.46
		c-0.92,0.65-1.63,1.46-2.16,2.45c-0.52,0.99-0.79,2.16-0.79,3.51c0,1.26,0.19,2.42,0.58,3.47c0.39,1.05,0.95,1.96,1.69,2.72
		c0.73,0.76,1.63,1.36,2.68,1.78C568.77,217.49,569.94,217.7,571.23,217.7"/>
	
		<path style="clip-path:url(#SVGID_00000000912245670909493010000010871281767668281782_);fill:none;stroke:#085890;stroke-width:5;stroke-miterlimit:10;" d="
		M573.3,187.41c1.56,0,3.04,0.28,4.46,0.85c1.41,0.57,2.67,1.41,3.78,2.52c1.08,1.11,1.91,2.37,2.5,3.78
		c0.58,1.41,0.88,2.9,0.88,4.46v20.47h-3.15v-2.7c-0.6,0.39-1.28,0.78-2.05,1.17c-0.76,0.39-1.61,0.75-2.52,1.08
		c-0.92,0.33-1.91,0.6-2.99,0.81c-1.08,0.21-2.22,0.32-3.42,0.32c-3.27,0-5.92-0.95-7.97-2.84c-1.05-0.99-1.84-2.18-2.39-3.58
		c-0.54-1.4-0.81-2.95-0.81-4.66c0-1.59,0.29-3.04,0.86-4.36c0.57-1.35,1.42-2.48,2.57-3.38c2.19-1.77,5.26-2.65,9.22-2.65
		c1.95,0,3.76,0.21,5.42,0.63c1.66,0.42,3.02,0.83,4.07,1.22v-1.76c0-1.17-0.22-2.26-0.67-3.29c-0.45-1.02-1.06-1.91-1.82-2.68
		c-0.76-0.76-1.66-1.37-2.68-1.82c-1.02-0.45-2.11-0.68-3.29-0.68c-1.53,0-2.94,0.09-4.23,0.27c-1.29,0.18-2.41,0.38-3.38,0.61
		c-0.96,0.23-1.99,0.52-3.1,0.88l-1.17-2.7c0.06-0.03,0.4-0.15,1.01-0.36c0.61-0.21,1.45-0.43,2.5-0.68
		c1.05-0.24,2.29-0.46,3.71-0.65C570.07,187.51,571.62,187.41,573.3,187.41z M571.23,217.7c1.2,0,2.34-0.13,3.42-0.4
		c1.08-0.27,2.07-0.59,2.97-0.97c0.9-0.38,1.7-0.78,2.41-1.21c0.7-0.43,1.28-0.83,1.73-1.19v-11.07c-0.42-0.15-0.95-0.32-1.58-0.52
		c-0.63-0.2-1.33-0.38-2.09-0.54c-0.76-0.16-1.59-0.31-2.47-0.43c-0.89-0.12-1.79-0.18-2.72-0.18c-1.41,0-2.73,0.17-3.96,0.5
		c-1.23,0.33-2.3,0.82-3.22,1.46c-0.92,0.65-1.63,1.46-2.16,2.45c-0.52,0.99-0.79,2.16-0.79,3.51c0,1.26,0.19,2.42,0.58,3.47
		c0.39,1.05,0.95,1.96,1.69,2.72c0.73,0.76,1.63,1.36,2.68,1.78C568.77,217.49,569.94,217.7,571.23,217.7z"/>
	<path style="clip-path:url(#SVGID_00000000912245670909493010000010871281767668281782_);fill:#085890;" d="M609.98,212.03
		c2.07,2.88,4.96,4.32,8.68,4.32v3.15c-1.5,0-2.84-0.17-4.03-0.52c-1.19-0.34-2.24-0.79-3.17-1.35c-0.93-0.55-1.73-1.17-2.41-1.84
		c-0.67-0.68-1.25-1.34-1.73-2c-0.6-0.84-1.07-1.64-1.42-2.41c-0.34-0.76-0.61-1.43-0.79-2h-8.96v10.12h-3.15v-32.13h13.32
		c1.47,0,2.87,0.28,4.21,0.83c1.33,0.56,2.53,1.36,3.58,2.41c1.05,1.05,1.85,2.24,2.39,3.58c0.54,1.33,0.81,2.74,0.81,4.21
		s-0.27,2.87-0.81,4.21c-0.54,1.34-1.34,2.53-2.39,3.58c-1.65,1.62-3.55,2.62-5.71,3.01c0.15,0.42,0.35,0.87,0.61,1.35
		C609.27,211.02,609.59,211.52,609.98,212.03 M596.16,206.22h10.17c1.08,0,2.09-0.2,3.04-0.61c0.95-0.4,1.78-0.97,2.5-1.69
		c0.72-0.72,1.28-1.55,1.69-2.5c0.41-0.95,0.61-1.96,0.61-3.04s-0.2-2.1-0.61-3.06c-0.41-0.96-0.97-1.79-1.69-2.5
		c-0.72-0.7-1.55-1.27-2.5-1.69c-0.94-0.42-1.96-0.63-3.04-0.63h-10.17V206.22z"/>
	
		<path style="clip-path:url(#SVGID_00000000912245670909493010000010871281767668281782_);fill:none;stroke:#085890;stroke-width:5;stroke-miterlimit:10;" d="
		M609.98,212.03c2.07,2.88,4.96,4.32,8.68,4.32v3.15c-1.5,0-2.84-0.17-4.03-0.52c-1.19-0.34-2.24-0.79-3.17-1.35
		c-0.93-0.55-1.73-1.17-2.41-1.84c-0.67-0.68-1.25-1.34-1.73-2c-0.6-0.84-1.07-1.64-1.42-2.41c-0.34-0.76-0.61-1.43-0.79-2h-8.96
		v10.12h-3.15v-32.13h13.32c1.47,0,2.87,0.28,4.21,0.83c1.33,0.56,2.53,1.36,3.58,2.41c1.05,1.05,1.85,2.24,2.39,3.58
		c0.54,1.33,0.81,2.74,0.81,4.21s-0.27,2.87-0.81,4.21c-0.54,1.34-1.34,2.53-2.39,3.58c-1.65,1.62-3.55,2.62-5.71,3.01
		c0.15,0.42,0.35,0.87,0.61,1.35C609.27,211.02,609.59,211.52,609.98,212.03z M596.16,206.22h10.17c1.08,0,2.09-0.2,3.04-0.61
		c0.95-0.4,1.78-0.97,2.5-1.69c0.72-0.72,1.28-1.55,1.69-2.5c0.41-0.95,0.61-1.96,0.61-3.04s-0.2-2.1-0.61-3.06
		c-0.41-0.96-0.97-1.79-1.69-2.5c-0.72-0.7-1.55-1.27-2.5-1.69c-0.94-0.42-1.96-0.63-3.04-0.63h-10.17V206.22z"/>
	<path style="clip-path:url(#SVGID_00000000912245670909493010000010871281767668281782_);fill:#085890;" d="M657.81,186.92
		c1.35,0,2.62,0.25,3.8,0.74c1.18,0.49,2.24,1.22,3.17,2.18c0.93,0.93,1.64,1.99,2.14,3.17c0.49,1.18,0.74,2.45,0.74,3.8v22.68
		h-3.15v-21.78c0-2.49-0.67-4.41-2-5.76c-1.34-1.35-3.08-2.02-5.24-2.02c-1.62,0-2.99,0.34-4.12,1.03s-2.05,1.48-2.77,2.36
		c-0.72,0.88-1.26,1.74-1.62,2.57c-0.36,0.82-0.58,1.36-0.67,1.6v22h-3.15v-21.78c0-2.49-0.67-4.41-2-5.76
		c-1.34-1.35-3.08-2.02-5.24-2.02c-1.5,0-2.8,0.31-3.89,0.92c-1.09,0.62-2,1.33-2.72,2.14c-0.72,0.81-1.28,1.62-1.69,2.43
		c-0.4,0.81-0.68,1.41-0.83,1.8v22.27h-3.15v-32.13h3.15v4.59c0.45-0.63,0.98-1.24,1.57-1.85c0.6-0.6,1.29-1.14,2.07-1.62
		c0.78-0.48,1.67-0.86,2.68-1.15s2.12-0.43,3.35-0.43c1.32,0,2.57,0.25,3.76,0.74c1.18,0.49,2.26,1.22,3.22,2.18
		c0.96,0.96,1.7,2.09,2.21,3.38c0.39-0.72,0.88-1.46,1.48-2.21c0.6-0.75,1.32-1.42,2.16-2.02c0.84-0.6,1.81-1.1,2.92-1.49
		C655.1,187.11,656.37,186.92,657.81,186.92"/>
	
		<path style="clip-path:url(#SVGID_00000000912245670909493010000010871281767668281782_);fill:none;stroke:#085890;stroke-width:5;stroke-miterlimit:10;" d="
		M657.81,186.92c1.35,0,2.62,0.25,3.8,0.74c1.18,0.49,2.24,1.22,3.17,2.18c0.93,0.93,1.64,1.99,2.14,3.17
		c0.49,1.18,0.74,2.45,0.74,3.8v22.68h-3.15v-21.78c0-2.49-0.67-4.41-2-5.76c-1.34-1.35-3.08-2.02-5.24-2.02
		c-1.62,0-2.99,0.34-4.12,1.03s-2.05,1.48-2.77,2.36c-0.72,0.88-1.26,1.74-1.62,2.57c-0.36,0.82-0.58,1.36-0.67,1.6v22h-3.15v-21.78
		c0-2.49-0.67-4.41-2-5.76c-1.34-1.35-3.08-2.02-5.24-2.02c-1.5,0-2.8,0.31-3.89,0.92c-1.09,0.62-2,1.33-2.72,2.14
		c-0.72,0.81-1.28,1.62-1.69,2.43c-0.4,0.81-0.68,1.41-0.83,1.8v22.27h-3.15v-32.13h3.15v4.59c0.45-0.63,0.98-1.24,1.57-1.85
		c0.6-0.6,1.29-1.14,2.07-1.62c0.78-0.48,1.67-0.86,2.68-1.15s2.12-0.43,3.35-0.43c1.32,0,2.57,0.25,3.76,0.74
		c1.18,0.49,2.26,1.22,3.22,2.18c0.96,0.96,1.7,2.09,2.21,3.38c0.39-0.72,0.88-1.46,1.48-2.21c0.6-0.75,1.32-1.42,2.16-2.02
		c0.84-0.6,1.81-1.1,2.92-1.49C655.1,187.11,656.37,186.92,657.81,186.92z"/>
	<path style="clip-path:url(#SVGID_00000000912245670909493010000010871281767668281782_);fill:#085890;" d="M688.55,187.41
		c1.56,0,3.04,0.28,4.46,0.85c1.41,0.57,2.67,1.41,3.78,2.52c1.08,1.11,1.91,2.37,2.5,3.78c0.58,1.41,0.88,2.9,0.88,4.46v20.47
		h-3.15v-2.7c-0.6,0.39-1.28,0.78-2.05,1.17c-0.76,0.39-1.61,0.75-2.52,1.08c-0.92,0.33-1.91,0.6-2.99,0.81
		c-1.08,0.21-2.22,0.32-3.42,0.32c-3.27,0-5.92-0.95-7.97-2.84c-1.05-0.99-1.84-2.18-2.39-3.58c-0.54-1.4-0.81-2.95-0.81-4.66
		c0-1.59,0.29-3.04,0.86-4.36c0.57-1.35,1.42-2.48,2.57-3.38c2.19-1.77,5.26-2.65,9.22-2.65c1.95,0,3.76,0.21,5.42,0.63
		c1.66,0.42,3.02,0.83,4.07,1.22v-1.76c0-1.17-0.22-2.26-0.67-3.29c-0.45-1.02-1.06-1.91-1.82-2.68c-0.76-0.76-1.66-1.37-2.68-1.82
		s-2.11-0.68-3.29-0.68c-1.53,0-2.94,0.09-4.23,0.27c-1.29,0.18-2.41,0.38-3.38,0.61c-0.96,0.23-1.99,0.52-3.1,0.88l-1.17-2.7
		c0.06-0.03,0.4-0.15,1.01-0.36c0.61-0.21,1.45-0.43,2.5-0.68c1.05-0.24,2.29-0.46,3.71-0.65
		C685.32,187.51,686.87,187.41,688.55,187.41 M686.48,217.7c1.2,0,2.34-0.13,3.42-0.4c1.08-0.27,2.07-0.59,2.97-0.97
		c0.9-0.38,1.7-0.78,2.41-1.21c0.7-0.43,1.28-0.83,1.73-1.19v-11.07c-0.42-0.15-0.95-0.32-1.58-0.52c-0.63-0.2-1.33-0.38-2.09-0.54
		c-0.76-0.16-1.59-0.31-2.47-0.43c-0.89-0.12-1.79-0.18-2.72-0.18c-1.41,0-2.73,0.17-3.96,0.5c-1.23,0.33-2.3,0.82-3.22,1.46
		c-0.92,0.65-1.63,1.46-2.16,2.45c-0.52,0.99-0.79,2.16-0.79,3.51c0,1.26,0.19,2.42,0.59,3.47c0.39,1.05,0.95,1.96,1.69,2.72
		c0.73,0.76,1.63,1.36,2.68,1.78C684.02,217.49,685.19,217.7,686.48,217.7"/>
	
		<path style="clip-path:url(#SVGID_00000000912245670909493010000010871281767668281782_);fill:none;stroke:#085890;stroke-width:5;stroke-miterlimit:10;" d="
		M688.55,187.41c1.56,0,3.04,0.28,4.46,0.85c1.41,0.57,2.67,1.41,3.78,2.52c1.08,1.11,1.91,2.37,2.5,3.78
		c0.58,1.41,0.88,2.9,0.88,4.46v20.47h-3.15v-2.7c-0.6,0.39-1.28,0.78-2.05,1.17c-0.76,0.39-1.61,0.75-2.52,1.08
		c-0.92,0.33-1.91,0.6-2.99,0.81c-1.08,0.21-2.22,0.32-3.42,0.32c-3.27,0-5.92-0.95-7.97-2.84c-1.05-0.99-1.84-2.18-2.39-3.58
		c-0.54-1.4-0.81-2.95-0.81-4.66c0-1.59,0.29-3.04,0.86-4.36c0.57-1.35,1.42-2.48,2.57-3.38c2.19-1.77,5.26-2.65,9.22-2.65
		c1.95,0,3.76,0.21,5.42,0.63c1.66,0.42,3.02,0.83,4.07,1.22v-1.76c0-1.17-0.22-2.26-0.67-3.29c-0.45-1.02-1.06-1.91-1.82-2.68
		c-0.76-0.76-1.66-1.37-2.68-1.82s-2.11-0.68-3.29-0.68c-1.53,0-2.94,0.09-4.23,0.27c-1.29,0.18-2.41,0.38-3.38,0.61
		c-0.96,0.23-1.99,0.52-3.1,0.88l-1.17-2.7c0.06-0.03,0.4-0.15,1.01-0.36c0.61-0.21,1.45-0.43,2.5-0.68
		c1.05-0.24,2.29-0.46,3.71-0.65C685.32,187.51,686.87,187.41,688.55,187.41z M686.48,217.7c1.2,0,2.34-0.13,3.42-0.4
		c1.08-0.27,2.07-0.59,2.97-0.97c0.9-0.38,1.7-0.78,2.41-1.21c0.7-0.43,1.28-0.83,1.73-1.19v-11.07c-0.42-0.15-0.95-0.32-1.58-0.52
		c-0.63-0.2-1.33-0.38-2.09-0.54c-0.76-0.16-1.59-0.31-2.47-0.43c-0.89-0.12-1.79-0.18-2.72-0.18c-1.41,0-2.73,0.17-3.96,0.5
		c-1.23,0.33-2.3,0.82-3.22,1.46c-0.92,0.65-1.63,1.46-2.16,2.45c-0.52,0.99-0.79,2.16-0.79,3.51c0,1.26,0.19,2.42,0.59,3.47
		c0.39,1.05,0.95,1.96,1.69,2.72c0.73,0.76,1.63,1.36,2.68,1.78C684.02,217.49,685.19,217.7,686.48,217.7z"/>
	<path style="clip-path:url(#SVGID_00000000912245670909493010000010871281767668281782_);fill:#085890;" d="M723.74,190.2
		c-1.83,0-3.55,0.35-5.15,1.04c-1.61,0.69-3.01,1.63-4.21,2.84c-1.2,1.2-2.15,2.6-2.83,4.21c-0.69,1.61-1.04,3.32-1.04,5.15
		s0.34,3.55,1.04,5.15c0.69,1.61,1.63,3.01,2.83,4.21c1.2,1.2,2.6,2.14,4.21,2.83c1.6,0.69,3.32,1.04,5.15,1.04
		c1.53,0,3-0.25,4.41-0.74c1.41-0.5,2.72-1.22,3.92-2.18l1.98,2.48c-1.47,1.14-3.05,2.02-4.73,2.65c-1.8,0.63-3.66,0.94-5.58,0.94
		c-2.25,0-4.36-0.42-6.35-1.26c-2.01-0.87-3.75-2.04-5.22-3.51c-1.53-1.53-2.7-3.27-3.51-5.22c-0.87-2.07-1.31-4.2-1.31-6.39
		c0-2.22,0.43-4.34,1.31-6.35c0.81-2.01,1.98-3.75,3.51-5.22c1.47-1.53,3.21-2.7,5.22-3.51c2.07-0.87,4.19-1.3,6.35-1.3
		c1.95,0,3.81,0.33,5.58,0.99c1.68,0.57,3.26,1.45,4.73,2.65l-1.98,2.43c-1.2-0.96-2.51-1.69-3.92-2.18
		C726.74,190.45,725.27,190.2,723.74,190.2"/>
	
		<path style="clip-path:url(#SVGID_00000000912245670909493010000010871281767668281782_);fill:none;stroke:#085890;stroke-width:5;stroke-miterlimit:10;" d="
		M723.74,190.2c-1.83,0-3.55,0.35-5.15,1.04c-1.61,0.69-3.01,1.63-4.21,2.84c-1.2,1.2-2.15,2.6-2.83,4.21
		c-0.69,1.61-1.04,3.32-1.04,5.15s0.34,3.55,1.04,5.15c0.69,1.61,1.63,3.01,2.83,4.21c1.2,1.2,2.6,2.14,4.21,2.83
		c1.6,0.69,3.32,1.04,5.15,1.04c1.53,0,3-0.25,4.41-0.74c1.41-0.5,2.72-1.22,3.92-2.18l1.98,2.48c-1.47,1.14-3.05,2.02-4.73,2.65
		c-1.8,0.63-3.66,0.94-5.58,0.94c-2.25,0-4.36-0.42-6.35-1.26c-2.01-0.87-3.75-2.04-5.22-3.51c-1.53-1.53-2.7-3.27-3.51-5.22
		c-0.87-2.07-1.31-4.2-1.31-6.39c0-2.22,0.43-4.34,1.31-6.35c0.81-2.01,1.98-3.75,3.51-5.22c1.47-1.53,3.21-2.7,5.22-3.51
		c2.07-0.87,4.19-1.3,6.35-1.3c1.95,0,3.81,0.33,5.58,0.99c1.68,0.57,3.26,1.45,4.73,2.65l-1.98,2.43c-1.2-0.96-2.51-1.69-3.92-2.18
		C726.74,190.45,725.27,190.2,723.74,190.2z"/>
	<path style="clip-path:url(#SVGID_00000000912245670909493010000010871281767668281782_);fill:#085890;" d="M741.69,202.62v0.81
		c0,1.83,0.35,3.55,1.06,5.17c0.7,1.62,1.66,3.03,2.86,4.23c1.2,1.2,2.61,2.15,4.23,2.86c1.62,0.71,3.35,1.06,5.18,1.06
		c4.44,0,7.99-1.59,10.66-4.77l2.39,2.03c-1.5,1.86-3.35,3.3-5.54,4.32c-2.28,1.05-4.78,1.57-7.51,1.57c-2.22,0-4.36-0.43-6.44-1.3
		c-1.95-0.81-3.69-1.98-5.22-3.51c-0.75-0.78-1.42-1.61-2-2.48c-0.58-0.87-1.09-1.79-1.51-2.74c-0.87-2.07-1.31-4.21-1.31-6.43
		c0-2.25,0.37-4.37,1.1-6.37c0.73-1.99,1.81-3.74,3.22-5.24c1.41-1.47,3.14-2.65,5.17-3.56c2.04-0.84,4.32-1.26,6.84-1.26
		c2.13,0,4.1,0.36,5.9,1.08c1.71,0.66,3.24,1.66,4.59,3.01c1.29,1.26,2.29,2.74,3.02,4.43c0.72,1.7,1.12,3.5,1.22,5.42l0.09,1.66
		H741.69z M754.88,190.16c-3.63,0-6.46,0.85-8.48,2.54c-2.03,1.69-3.43,4.1-4.21,7.22h24.12c-0.18-1.5-0.6-2.86-1.26-4.07
		c-0.66-1.21-1.5-2.24-2.52-3.08c-1.02-0.84-2.18-1.49-3.49-1.93S756.35,190.16,754.88,190.16"/>
	
		<path style="clip-path:url(#SVGID_00000000912245670909493010000010871281767668281782_);fill:none;stroke:#085890;stroke-width:5;stroke-miterlimit:10;" d="
		M741.69,202.62v0.81c0,1.83,0.35,3.55,1.06,5.17c0.7,1.62,1.66,3.03,2.86,4.23c1.2,1.2,2.61,2.15,4.23,2.86
		c1.62,0.71,3.35,1.06,5.18,1.06c4.44,0,7.99-1.59,10.66-4.77l2.39,2.03c-1.5,1.86-3.35,3.3-5.54,4.32
		c-2.28,1.05-4.78,1.57-7.51,1.57c-2.22,0-4.36-0.43-6.44-1.3c-1.95-0.81-3.69-1.98-5.22-3.51c-0.75-0.78-1.42-1.61-2-2.48
		c-0.58-0.87-1.09-1.79-1.51-2.74c-0.87-2.07-1.31-4.21-1.31-6.43c0-2.25,0.37-4.37,1.1-6.37c0.73-1.99,1.81-3.74,3.22-5.24
		c1.41-1.47,3.14-2.65,5.17-3.56c2.04-0.84,4.32-1.26,6.84-1.26c2.13,0,4.1,0.36,5.9,1.08c1.71,0.66,3.24,1.66,4.59,3.01
		c1.29,1.26,2.29,2.74,3.02,4.43c0.72,1.7,1.12,3.5,1.22,5.42l0.09,1.66H741.69z M754.88,190.16c-3.63,0-6.46,0.85-8.48,2.54
		c-2.03,1.69-3.43,4.1-4.21,7.22h24.12c-0.18-1.5-0.6-2.86-1.26-4.07c-0.66-1.21-1.5-2.24-2.52-3.08c-1.02-0.84-2.18-1.49-3.49-1.93
		S756.35,190.16,754.88,190.16z"/>
	<path style="clip-path:url(#SVGID_00000000912245670909493010000010871281767668281782_);fill:#085890;" d="M799.02,187.37h3.15
		v32.13h-3.15v-2.7c-0.6,0.39-1.28,0.78-2.05,1.17s-1.61,0.75-2.54,1.08c-0.93,0.33-1.93,0.6-3.02,0.81
		c-1.08,0.21-2.22,0.32-3.42,0.32c-3.24,0-5.88-0.94-7.92-2.83c-1.05-0.99-1.85-2.18-2.39-3.58c-0.54-1.4-0.81-2.95-0.81-4.66
		v-21.74h3.15v21.74c0,1.26,0.19,2.41,0.59,3.46c0.39,1.05,0.95,1.96,1.69,2.72c0.73,0.77,1.62,1.36,2.65,1.78
		c1.04,0.42,2.2,0.63,3.49,0.63c1.23,0,2.38-0.14,3.46-0.4c1.08-0.27,2.07-0.59,2.97-0.97c0.9-0.38,1.7-0.78,2.41-1.22
		c0.7-0.43,1.28-0.83,1.73-1.19V187.37z"/>
	
		<path style="clip-path:url(#SVGID_00000000912245670909493010000010871281767668281782_);fill:none;stroke:#085890;stroke-width:5;stroke-miterlimit:10;" d="
		M799.02,187.37h3.15v32.13h-3.15v-2.7c-0.6,0.39-1.28,0.78-2.05,1.17s-1.61,0.75-2.54,1.08c-0.93,0.33-1.93,0.6-3.02,0.81
		c-1.08,0.21-2.22,0.32-3.42,0.32c-3.24,0-5.88-0.94-7.92-2.83c-1.05-0.99-1.85-2.18-2.39-3.58c-0.54-1.4-0.81-2.95-0.81-4.66
		v-21.74h3.15v21.74c0,1.26,0.19,2.41,0.59,3.46c0.39,1.05,0.95,1.96,1.69,2.72c0.73,0.77,1.62,1.36,2.65,1.78
		c1.04,0.42,2.2,0.63,3.49,0.63c1.23,0,2.38-0.14,3.46-0.4c1.08-0.27,2.07-0.59,2.97-0.97c0.9-0.38,1.7-0.78,2.41-1.22
		c0.7-0.43,1.28-0.83,1.73-1.19V187.37z"/>
	<polygon style="clip-path:url(#SVGID_00000000912245670909493010000010871281767668281782_);fill:#085890;" points="809.37,187.37 
		832.77,187.37 832.77,190.52 822.65,190.52 822.65,219.5 819.5,219.5 819.5,190.52 809.37,190.52 	"/>
	
		<polygon style="clip-path:url(#SVGID_00000000912245670909493010000010871281767668281782_);fill:none;stroke:#085890;stroke-width:5;stroke-miterlimit:10;" points="
		809.37,187.37 832.77,187.37 832.77,190.52 822.65,190.52 822.65,219.5 819.5,219.5 819.5,190.52 809.37,190.52 	"/>
	
		<rect x="839.52" y="187.37" style="clip-path:url(#SVGID_00000000912245670909493010000010871281767668281782_);fill:#085890;" width="3.15" height="32.13"/>
	
		<rect x="839.52" y="187.37" style="clip-path:url(#SVGID_00000000912245670909493010000010871281767668281782_);fill:none;stroke:#085890;stroke-width:5;stroke-miterlimit:10;" width="3.15" height="32.13"/>
	<path style="clip-path:url(#SVGID_00000000912245670909493010000010871281767668281782_);fill:#085890;" d="M866.25,190.2
		c-1.83,0-3.55,0.35-5.15,1.04c-1.61,0.69-3.01,1.63-4.21,2.84c-1.2,1.2-2.15,2.6-2.83,4.21c-0.69,1.61-1.04,3.32-1.04,5.15
		s0.34,3.55,1.04,5.15c0.69,1.61,1.63,3.01,2.83,4.21c1.2,1.2,2.6,2.14,4.21,2.83c1.6,0.69,3.32,1.04,5.15,1.04
		c1.53,0,3-0.25,4.41-0.74c1.41-0.5,2.71-1.22,3.91-2.18l1.98,2.48c-1.47,1.14-3.05,2.02-4.73,2.65c-1.8,0.63-3.66,0.94-5.58,0.94
		c-2.25,0-4.37-0.42-6.35-1.26c-2.01-0.87-3.75-2.04-5.22-3.51c-1.53-1.53-2.7-3.27-3.51-5.22c-0.87-2.07-1.31-4.2-1.31-6.39
		c0-2.22,0.43-4.34,1.31-6.35c0.81-2.01,1.98-3.75,3.51-5.22c1.47-1.53,3.21-2.7,5.22-3.51c2.07-0.87,4.19-1.3,6.35-1.3
		c1.95,0,3.81,0.33,5.58,0.99c1.68,0.57,3.26,1.45,4.73,2.65l-1.98,2.43c-1.2-0.96-2.51-1.69-3.91-2.18
		C869.25,190.45,867.78,190.2,866.25,190.2"/>
	
		<path style="clip-path:url(#SVGID_00000000912245670909493010000010871281767668281782_);fill:none;stroke:#085890;stroke-width:5;stroke-miterlimit:10;" d="
		M866.25,190.2c-1.83,0-3.55,0.35-5.15,1.04c-1.61,0.69-3.01,1.63-4.21,2.84c-1.2,1.2-2.15,2.6-2.83,4.21
		c-0.69,1.61-1.04,3.32-1.04,5.15s0.34,3.55,1.04,5.15c0.69,1.61,1.63,3.01,2.83,4.21c1.2,1.2,2.6,2.14,4.21,2.83
		c1.6,0.69,3.32,1.04,5.15,1.04c1.53,0,3-0.25,4.41-0.74c1.41-0.5,2.71-1.22,3.91-2.18l1.98,2.48c-1.47,1.14-3.05,2.02-4.73,2.65
		c-1.8,0.63-3.66,0.94-5.58,0.94c-2.25,0-4.37-0.42-6.35-1.26c-2.01-0.87-3.75-2.04-5.22-3.51c-1.53-1.53-2.7-3.27-3.51-5.22
		c-0.87-2.07-1.31-4.2-1.31-6.39c0-2.22,0.43-4.34,1.31-6.35c0.81-2.01,1.98-3.75,3.51-5.22c1.47-1.53,3.21-2.7,5.22-3.51
		c2.07-0.87,4.19-1.3,6.35-1.3c1.95,0,3.81,0.33,5.58,0.99c1.68,0.57,3.26,1.45,4.73,2.65l-1.98,2.43c-1.2-0.96-2.51-1.69-3.91-2.18
		C869.25,190.45,867.78,190.2,866.25,190.2z"/>
	<path style="clip-path:url(#SVGID_00000000912245670909493010000010871281767668281782_);fill:#085890;" d="M898.34,187.41
		c1.56,0,3.04,0.28,4.46,0.85c1.41,0.57,2.67,1.41,3.78,2.52c1.08,1.11,1.91,2.37,2.5,3.78c0.58,1.41,0.88,2.9,0.88,4.46v20.47
		h-3.15v-2.7c-0.6,0.39-1.28,0.78-2.05,1.17c-0.76,0.39-1.6,0.75-2.52,1.08c-0.92,0.33-1.91,0.6-2.99,0.81
		c-1.08,0.21-2.22,0.32-3.42,0.32c-3.27,0-5.93-0.95-7.97-2.84c-1.05-0.99-1.84-2.18-2.39-3.58c-0.54-1.4-0.81-2.95-0.81-4.66
		c0-1.59,0.29-3.04,0.85-4.36c0.57-1.35,1.43-2.48,2.57-3.38c2.19-1.77,5.27-2.65,9.23-2.65c1.95,0,3.76,0.21,5.42,0.63
		c1.66,0.42,3.02,0.83,4.07,1.22v-1.76c0-1.17-0.23-2.26-0.67-3.29c-0.45-1.02-1.06-1.91-1.82-2.68c-0.76-0.76-1.66-1.37-2.68-1.82
		c-1.02-0.45-2.11-0.68-3.29-0.68c-1.53,0-2.94,0.09-4.23,0.27c-1.29,0.18-2.41,0.38-3.38,0.61c-0.96,0.23-1.99,0.52-3.1,0.88
		l-1.17-2.7c0.06-0.03,0.4-0.15,1.01-0.36s1.45-0.43,2.5-0.68c1.05-0.24,2.29-0.46,3.71-0.65
		C895.11,187.51,896.66,187.41,898.34,187.41 M896.27,217.7c1.2,0,2.34-0.13,3.42-0.4c1.08-0.27,2.07-0.59,2.97-0.97
		c0.9-0.38,1.7-0.78,2.41-1.21c0.7-0.43,1.28-0.83,1.73-1.19v-11.07c-0.42-0.15-0.95-0.32-1.58-0.52c-0.63-0.2-1.33-0.38-2.09-0.54
		c-0.76-0.16-1.59-0.31-2.47-0.43c-0.89-0.12-1.79-0.18-2.72-0.18c-1.41,0-2.73,0.17-3.96,0.5c-1.23,0.33-2.3,0.82-3.22,1.46
		c-0.91,0.65-1.63,1.46-2.16,2.45c-0.52,0.99-0.79,2.16-0.79,3.51c0,1.26,0.19,2.42,0.58,3.47c0.39,1.05,0.95,1.96,1.69,2.72
		c0.73,0.76,1.63,1.36,2.68,1.78C893.81,217.49,894.98,217.7,896.27,217.7"/>
	
		<path style="clip-path:url(#SVGID_00000000912245670909493010000010871281767668281782_);fill:none;stroke:#085890;stroke-width:5;stroke-miterlimit:10;" d="
		M898.34,187.41c1.56,0,3.04,0.28,4.46,0.85c1.41,0.57,2.67,1.41,3.78,2.52c1.08,1.11,1.91,2.37,2.5,3.78
		c0.58,1.41,0.88,2.9,0.88,4.46v20.47h-3.15v-2.7c-0.6,0.39-1.28,0.78-2.05,1.17c-0.76,0.39-1.6,0.75-2.52,1.08
		c-0.92,0.33-1.91,0.6-2.99,0.81c-1.08,0.21-2.22,0.32-3.42,0.32c-3.27,0-5.93-0.95-7.97-2.84c-1.05-0.99-1.84-2.18-2.39-3.58
		c-0.54-1.4-0.81-2.95-0.81-4.66c0-1.59,0.29-3.04,0.85-4.36c0.57-1.35,1.43-2.48,2.57-3.38c2.19-1.77,5.27-2.65,9.23-2.65
		c1.95,0,3.76,0.21,5.42,0.63c1.66,0.42,3.02,0.83,4.07,1.22v-1.76c0-1.17-0.23-2.26-0.67-3.29c-0.45-1.02-1.06-1.91-1.82-2.68
		c-0.76-0.76-1.66-1.37-2.68-1.82c-1.02-0.45-2.11-0.68-3.29-0.68c-1.53,0-2.94,0.09-4.23,0.27c-1.29,0.18-2.41,0.38-3.38,0.61
		c-0.96,0.23-1.99,0.52-3.1,0.88l-1.17-2.7c0.06-0.03,0.4-0.15,1.01-0.36s1.45-0.43,2.5-0.68c1.05-0.24,2.29-0.46,3.71-0.65
		C895.11,187.51,896.66,187.41,898.34,187.41z M896.27,217.7c1.2,0,2.34-0.13,3.42-0.4c1.08-0.27,2.07-0.59,2.97-0.97
		c0.9-0.38,1.7-0.78,2.41-1.21c0.7-0.43,1.28-0.83,1.73-1.19v-11.07c-0.42-0.15-0.95-0.32-1.58-0.52c-0.63-0.2-1.33-0.38-2.09-0.54
		c-0.76-0.16-1.59-0.31-2.47-0.43c-0.89-0.12-1.79-0.18-2.72-0.18c-1.41,0-2.73,0.17-3.96,0.5c-1.23,0.33-2.3,0.82-3.22,1.46
		c-0.91,0.65-1.63,1.46-2.16,2.45c-0.52,0.99-0.79,2.16-0.79,3.51c0,1.26,0.19,2.42,0.58,3.47c0.39,1.05,0.95,1.96,1.69,2.72
		c0.73,0.76,1.63,1.36,2.68,1.78C893.81,217.49,894.98,217.7,896.27,217.7z"/>
	<polygon style="clip-path:url(#SVGID_00000000912245670909493010000010871281767668281782_);fill:#085890;" points="921.2,216.35 
		934.92,216.35 934.47,219.5 918.05,219.5 918.05,187.37 921.2,187.37 	"/>
	
		<polygon style="clip-path:url(#SVGID_00000000912245670909493010000010871281767668281782_);fill:none;stroke:#085890;stroke-width:5;stroke-miterlimit:10;" points="
		921.2,216.35 934.92,216.35 934.47,219.5 918.05,219.5 918.05,187.37 921.2,187.37 	"/>
	<path style="clip-path:url(#SVGID_00000000912245670909493010000010871281767668281782_);fill:#ED1C24;" d="M507,251.76
		c-2.39,0-4.64,0.45-6.73,1.35c-2.1,0.9-3.93,2.14-5.5,3.7c-1.57,1.57-2.8,3.4-3.7,5.5c-0.9,2.1-1.35,4.34-1.35,6.73
		c0,2.39,0.45,4.63,1.35,6.73c0.9,2.1,2.14,3.93,3.7,5.5c1.57,1.57,3.4,2.8,5.5,3.7c2.1,0.9,4.34,1.35,6.73,1.35
		c2,0,3.92-0.32,5.76-0.97c1.84-0.65,3.53-1.6,5.05-2.85l2.59,3.23c-1.8,1.45-3.86,2.61-6.17,3.47c-2.31,0.82-4.72,1.23-7.23,1.23
		c-2.98,0-5.76-0.55-8.35-1.65c-2.55-1.14-4.82-2.66-6.82-4.58c-1.92-2-3.45-4.27-4.59-6.82c-1.1-2.59-1.65-5.37-1.65-8.35
		c0-2.98,0.55-5.74,1.65-8.29c1.14-2.62,2.66-4.9,4.59-6.82c2-2,4.27-3.53,6.82-4.58c2.7-1.14,5.49-1.71,8.35-1.71
		c1.25,0,2.49,0.11,3.7,0.32c1.21,0.22,2.39,0.54,3.53,0.97c2.31,0.78,4.37,1.94,6.17,3.47l-2.59,3.18
		C514.68,253.03,511.07,251.76,507,251.76"/>
	
		<path style="clip-path:url(#SVGID_00000000912245670909493010000010871281767668281782_);fill:none;stroke:#ED1C24;stroke-width:5;stroke-miterlimit:10;" d="
		M507,251.76c-2.39,0-4.64,0.45-6.73,1.35c-2.1,0.9-3.93,2.14-5.5,3.7c-1.57,1.57-2.8,3.4-3.7,5.5c-0.9,2.1-1.35,4.34-1.35,6.73
		c0,2.39,0.45,4.63,1.35,6.73c0.9,2.1,2.14,3.93,3.7,5.5c1.57,1.57,3.4,2.8,5.5,3.7c2.1,0.9,4.34,1.35,6.73,1.35
		c2,0,3.92-0.32,5.76-0.97c1.84-0.65,3.53-1.6,5.05-2.85l2.59,3.23c-1.8,1.45-3.86,2.61-6.17,3.47c-2.31,0.82-4.72,1.23-7.23,1.23
		c-2.98,0-5.76-0.55-8.35-1.65c-2.55-1.14-4.82-2.66-6.82-4.58c-1.92-2-3.45-4.27-4.59-6.82c-1.1-2.59-1.65-5.37-1.65-8.35
		c0-2.98,0.55-5.74,1.65-8.29c1.14-2.62,2.66-4.9,4.59-6.82c2-2,4.27-3.53,6.82-4.58c2.7-1.14,5.49-1.71,8.35-1.71
		c1.25,0,2.49,0.11,3.7,0.32c1.21,0.22,2.39,0.54,3.53,0.97c2.31,0.78,4.37,1.94,6.17,3.47l-2.59,3.18
		C514.68,253.03,511.07,251.76,507,251.76z"/>
	<path style="clip-path:url(#SVGID_00000000912245670909493010000010871281767668281782_);fill:#085890;" d="M557.82,262.41
		c1.5,1.47,2.67,3.2,3.51,5.17c0.87,2.07,1.31,4.2,1.31,6.39c0,2.19-0.44,4.32-1.31,6.39c-0.81,1.95-1.98,3.69-3.51,5.22
		c-1.47,1.47-3.21,2.64-5.22,3.51c-1.98,0.84-4.09,1.26-6.34,1.26c-2.28,0-4.41-0.42-6.39-1.26c-1.95-0.87-3.69-2.04-5.22-3.51
		c-0.75-0.78-1.42-1.6-2-2.47c-0.58-0.87-1.09-1.79-1.51-2.75c-0.84-1.98-1.26-4.11-1.26-6.39s0.42-4.41,1.26-6.39
		c0.81-1.92,1.98-3.64,3.51-5.17c1.53-1.53,3.27-2.7,5.22-3.51c2.07-0.87,4.2-1.3,6.39-1.3c2.16,0,4.27,0.43,6.34,1.3
		C554.61,259.71,556.35,260.88,557.82,262.41 M546.26,287.21c1.83,0,3.55-0.35,5.15-1.04c1.6-0.69,3.01-1.64,4.21-2.84
		c1.2-1.2,2.15-2.6,2.84-4.21c0.69-1.6,1.03-3.32,1.03-5.15c0-1.83-0.34-3.55-1.03-5.15c-0.69-1.6-1.64-3.01-2.84-4.21
		c-1.2-1.2-2.6-2.14-4.21-2.83c-1.61-0.69-3.32-1.04-5.15-1.04c-1.83,0-3.55,0.35-5.15,1.04c-1.61,0.69-3.01,1.64-4.21,2.83
		c-1.2,1.2-2.15,2.6-2.83,4.21c-0.69,1.61-1.04,3.32-1.04,5.15c0,1.83,0.34,3.55,1.04,5.15c0.69,1.61,1.63,3.01,2.83,4.21
		c1.2,1.2,2.6,2.15,4.21,2.84C542.71,286.86,544.43,287.21,546.26,287.21"/>
	
		<path style="clip-path:url(#SVGID_00000000912245670909493010000010871281767668281782_);fill:none;stroke:#085890;stroke-width:5;stroke-miterlimit:10;" d="
		M557.82,262.41c1.5,1.47,2.67,3.2,3.51,5.17c0.87,2.07,1.31,4.2,1.31,6.39c0,2.19-0.44,4.32-1.31,6.39
		c-0.81,1.95-1.98,3.69-3.51,5.22c-1.47,1.47-3.21,2.64-5.22,3.51c-1.98,0.84-4.09,1.26-6.34,1.26c-2.28,0-4.41-0.42-6.39-1.26
		c-1.95-0.87-3.69-2.04-5.22-3.51c-0.75-0.78-1.42-1.6-2-2.47c-0.58-0.87-1.09-1.79-1.51-2.75c-0.84-1.98-1.26-4.11-1.26-6.39
		s0.42-4.41,1.26-6.39c0.81-1.92,1.98-3.64,3.51-5.17c1.53-1.53,3.27-2.7,5.22-3.51c2.07-0.87,4.2-1.3,6.39-1.3
		c2.16,0,4.27,0.43,6.34,1.3C554.61,259.71,556.35,260.88,557.82,262.41z M546.26,287.21c1.83,0,3.55-0.35,5.15-1.04
		c1.6-0.69,3.01-1.64,4.21-2.84c1.2-1.2,2.15-2.6,2.84-4.21c0.69-1.6,1.03-3.32,1.03-5.15c0-1.83-0.34-3.55-1.03-5.15
		c-0.69-1.6-1.64-3.01-2.84-4.21c-1.2-1.2-2.6-2.14-4.21-2.83c-1.61-0.69-3.32-1.04-5.15-1.04c-1.83,0-3.55,0.35-5.15,1.04
		c-1.61,0.69-3.01,1.64-4.21,2.83c-1.2,1.2-2.15,2.6-2.83,4.21c-0.69,1.61-1.04,3.32-1.04,5.15c0,1.83,0.34,3.55,1.04,5.15
		c0.69,1.61,1.63,3.01,2.83,4.21c1.2,1.2,2.6,2.15,4.21,2.84C542.71,286.86,544.43,287.21,546.26,287.21z"/>
	<path style="clip-path:url(#SVGID_00000000912245670909493010000010871281767668281782_);fill:#085890;" d="M591.66,260.39
		c2.31,2.13,3.46,5.02,3.46,8.68v20.97h-3.15v-21.42c0-2.67-0.75-4.75-2.25-6.23c-1.5-1.48-3.57-2.23-6.21-2.23
		c-1.86,0-3.43,0.29-4.7,0.86c-1.27,0.57-2.33,1.22-3.15,1.96c-0.83,0.73-1.45,1.47-1.87,2.2c-0.42,0.74-0.69,1.28-0.81,1.64v23.22
		h-3.15v-32.13h3.15v4.32c0.45-0.57,1-1.14,1.64-1.71c0.64-0.57,1.4-1.08,2.27-1.53c0.87-0.45,1.85-0.82,2.95-1.1
		c1.1-0.29,2.32-0.43,3.67-0.43c0.78,0,1.54,0.06,2.27,0.18c0.73,0.12,1.45,0.3,2.14,0.54
		C589.43,258.69,590.67,259.43,591.66,260.39"/>
	
		<path style="clip-path:url(#SVGID_00000000912245670909493010000010871281767668281782_);fill:none;stroke:#085890;stroke-width:5;stroke-miterlimit:10;" d="
		M591.66,260.39c2.31,2.13,3.46,5.02,3.46,8.68v20.97h-3.15v-21.42c0-2.67-0.75-4.75-2.25-6.23c-1.5-1.48-3.57-2.23-6.21-2.23
		c-1.86,0-3.43,0.29-4.7,0.86c-1.27,0.57-2.33,1.22-3.15,1.96c-0.83,0.73-1.45,1.47-1.87,2.2c-0.42,0.74-0.69,1.28-0.81,1.64v23.22
		h-3.15v-32.13h3.15v4.32c0.45-0.57,1-1.14,1.64-1.71c0.64-0.57,1.4-1.08,2.27-1.53c0.87-0.45,1.85-0.82,2.95-1.1
		c1.1-0.29,2.32-0.43,3.67-0.43c0.78,0,1.54,0.06,2.27,0.18c0.73,0.12,1.45,0.3,2.14,0.54
		C589.43,258.69,590.67,259.43,591.66,260.39z"/>
	<path style="clip-path:url(#SVGID_00000000912245670909493010000010871281767668281782_);fill:#085890;" d="M621.32,275.42
		c1.2,0.84,2.11,1.8,2.74,2.88c0.75,1.26,1.12,2.61,1.12,4.05c0,1.26-0.29,2.41-0.85,3.46c-0.57,1.05-1.4,1.93-2.48,2.65
		c-0.96,0.69-2.08,1.2-3.35,1.53c-1.27,0.33-2.66,0.49-4.16,0.49c-2.1,0-3.9-0.29-5.4-0.86c-1.5-0.57-2.73-1.2-3.69-1.89
		c-0.96-0.69-1.68-1.33-2.16-1.93c-0.48-0.6-0.73-0.93-0.77-0.99l2.7-1.67h-0.04c0.03,0,0.22,0.22,0.56,0.65
		c0.34,0.43,0.89,0.92,1.64,1.46c2.01,1.38,4.39,2.07,7.15,2.07c1.14,0,2.21-0.13,3.22-0.38c1.01-0.25,1.85-0.62,2.54-1.1
		c1.29-0.87,1.93-2.04,1.93-3.51c0-1.68-0.85-3.14-2.57-4.37c-0.87-0.63-1.89-1.2-3.06-1.71c-1.17-0.51-2.36-0.99-3.55-1.44
		c-1.2-0.48-2.39-0.97-3.55-1.46c-1.17-0.49-2.23-1.07-3.2-1.73c-1.11-0.75-1.95-1.59-2.52-2.52c-0.69-1.05-1.04-2.23-1.04-3.55
		c0-2.58,1.08-4.53,3.24-5.85c1.95-1.2,4.56-1.8,7.83-1.8c1.47,0,2.86,0.17,4.16,0.52c1.3,0.35,2.44,0.72,3.42,1.12
		c0.97,0.4,1.76,0.79,2.34,1.15c0.59,0.36,0.91,0.56,0.97,0.59l-0.9,1.3l-0.9,1.3c-0.99-0.6-1.9-1.08-2.72-1.44
		c-0.83-0.36-1.79-0.68-2.88-0.97c-1.1-0.28-2.26-0.43-3.49-0.43c-2.7,0-4.76,0.43-6.16,1.3c-1.17,0.78-1.76,1.85-1.76,3.2
		c0,1.32,0.74,2.48,2.21,3.46c0.78,0.57,1.7,1.07,2.74,1.51c1.05,0.44,2.16,0.88,3.33,1.33c1.29,0.51,2.57,1.04,3.85,1.6
		C619.1,274.02,620.27,274.67,621.32,275.42"/>
	
		<path style="clip-path:url(#SVGID_00000000912245670909493010000010871281767668281782_);fill:none;stroke:#085890;stroke-width:5;stroke-miterlimit:10;" d="
		M621.32,275.42c1.2,0.84,2.11,1.8,2.74,2.88c0.75,1.26,1.12,2.61,1.12,4.05c0,1.26-0.29,2.41-0.85,3.46
		c-0.57,1.05-1.4,1.93-2.48,2.65c-0.96,0.69-2.08,1.2-3.35,1.53c-1.27,0.33-2.66,0.49-4.16,0.49c-2.1,0-3.9-0.29-5.4-0.86
		c-1.5-0.57-2.73-1.2-3.69-1.89c-0.96-0.69-1.68-1.33-2.16-1.93c-0.48-0.6-0.73-0.93-0.77-0.99l2.7-1.67h-0.04
		c0.03,0,0.22,0.22,0.56,0.65c0.34,0.43,0.89,0.92,1.64,1.46c2.01,1.38,4.39,2.07,7.15,2.07c1.14,0,2.21-0.13,3.22-0.38
		c1.01-0.25,1.85-0.62,2.54-1.1c1.29-0.87,1.93-2.04,1.93-3.51c0-1.68-0.85-3.14-2.57-4.37c-0.87-0.63-1.89-1.2-3.06-1.71
		c-1.17-0.51-2.36-0.99-3.55-1.44c-1.2-0.48-2.39-0.97-3.55-1.46c-1.17-0.49-2.23-1.07-3.2-1.73c-1.11-0.75-1.95-1.59-2.52-2.52
		c-0.69-1.05-1.04-2.23-1.04-3.55c0-2.58,1.08-4.53,3.24-5.85c1.95-1.2,4.56-1.8,7.83-1.8c1.47,0,2.86,0.17,4.16,0.52
		c1.3,0.35,2.44,0.72,3.42,1.12c0.97,0.4,1.76,0.79,2.34,1.15c0.59,0.36,0.91,0.56,0.97,0.59l-0.9,1.3l-0.9,1.3
		c-0.99-0.6-1.9-1.08-2.72-1.44c-0.83-0.36-1.79-0.68-2.88-0.97c-1.1-0.28-2.26-0.43-3.49-0.43c-2.7,0-4.76,0.43-6.16,1.3
		c-1.17,0.78-1.76,1.85-1.76,3.2c0,1.32,0.74,2.48,2.21,3.46c0.78,0.57,1.7,1.07,2.74,1.51c1.05,0.44,2.16,0.88,3.33,1.33
		c1.29,0.51,2.57,1.04,3.85,1.6C619.1,274.02,620.27,274.67,621.32,275.42z"/>
	<path style="clip-path:url(#SVGID_00000000912245670909493010000010871281767668281782_);fill:#085890;" d="M654.53,257.91h3.15
		v32.13h-3.15v-2.7c-0.6,0.39-1.28,0.78-2.05,1.17c-0.77,0.39-1.61,0.75-2.54,1.08c-0.93,0.33-1.93,0.6-3.02,0.81
		c-1.08,0.21-2.22,0.32-3.42,0.32c-3.24,0-5.88-0.95-7.92-2.83c-1.05-0.99-1.84-2.18-2.38-3.58c-0.54-1.39-0.81-2.95-0.81-4.66
		v-21.73h3.15v21.73c0,1.26,0.19,2.42,0.59,3.47c0.39,1.05,0.95,1.96,1.69,2.72c0.73,0.77,1.62,1.36,2.65,1.78
		c1.04,0.42,2.2,0.63,3.49,0.63c1.23,0,2.39-0.13,3.47-0.4c1.08-0.27,2.07-0.59,2.97-0.97c0.9-0.38,1.7-0.78,2.41-1.22
		c0.7-0.43,1.28-0.83,1.73-1.19V257.91z"/>
	
		<path style="clip-path:url(#SVGID_00000000912245670909493010000010871281767668281782_);fill:none;stroke:#085890;stroke-width:5;stroke-miterlimit:10;" d="
		M654.53,257.91h3.15v32.13h-3.15v-2.7c-0.6,0.39-1.28,0.78-2.05,1.17c-0.77,0.39-1.61,0.75-2.54,1.08
		c-0.93,0.33-1.93,0.6-3.02,0.81c-1.08,0.21-2.22,0.32-3.42,0.32c-3.24,0-5.88-0.95-7.92-2.83c-1.05-0.99-1.84-2.18-2.38-3.58
		c-0.54-1.39-0.81-2.95-0.81-4.66v-21.73h3.15v21.73c0,1.26,0.19,2.42,0.59,3.47c0.39,1.05,0.95,1.96,1.69,2.72
		c0.73,0.77,1.62,1.36,2.65,1.78c1.04,0.42,2.2,0.63,3.49,0.63c1.23,0,2.39-0.13,3.47-0.4c1.08-0.27,2.07-0.59,2.97-0.97
		c0.9-0.38,1.7-0.78,2.41-1.22c0.7-0.43,1.28-0.83,1.73-1.19V257.91z"/>
	<polygon style="clip-path:url(#SVGID_00000000912245670909493010000010871281767668281782_);fill:#085890;" points="668.93,286.89 
		682.65,286.89 682.2,290.04 665.78,290.04 665.78,257.91 668.93,257.91 	"/>
	
		<polygon style="clip-path:url(#SVGID_00000000912245670909493010000010871281767668281782_);fill:none;stroke:#085890;stroke-width:5;stroke-miterlimit:10;" points="
		668.93,286.89 682.65,286.89 682.2,290.04 665.78,290.04 665.78,257.91 668.93,257.91 	"/>
	<polygon style="clip-path:url(#SVGID_00000000912245670909493010000010871281767668281782_);fill:#085890;" points="683.1,257.91 
		706.5,257.91 706.5,261.06 696.37,261.06 696.37,290.04 693.23,290.04 693.23,261.06 683.1,261.06 	"/>
	
		<polygon style="clip-path:url(#SVGID_00000000912245670909493010000010871281767668281782_);fill:none;stroke:#085890;stroke-width:5;stroke-miterlimit:10;" points="
		683.1,257.91 706.5,257.91 706.5,261.06 696.37,261.06 696.37,290.04 693.23,290.04 693.23,261.06 683.1,261.06 	"/>
	<path style="clip-path:url(#SVGID_00000000912245670909493010000010871281767668281782_);fill:#085890;" d="M725.13,257.96
		c1.56,0,3.04,0.29,4.46,0.86c1.41,0.57,2.67,1.41,3.78,2.52c1.08,1.11,1.91,2.37,2.5,3.78c0.58,1.41,0.88,2.9,0.88,4.46v20.48
		h-3.15v-2.7c-0.6,0.39-1.28,0.78-2.05,1.17c-0.76,0.39-1.6,0.75-2.52,1.08c-0.92,0.33-1.91,0.6-2.99,0.81s-2.22,0.32-3.42,0.32
		c-3.27,0-5.93-0.95-7.97-2.83c-1.05-0.99-1.85-2.18-2.39-3.58c-0.54-1.39-0.81-2.95-0.81-4.66c0-1.59,0.29-3.04,0.85-4.36
		c0.57-1.35,1.43-2.48,2.57-3.38c2.19-1.77,5.27-2.65,9.23-2.65c1.95,0,3.76,0.21,5.42,0.63c1.66,0.42,3.02,0.83,4.07,1.21v-1.76
		c0-1.17-0.23-2.26-0.67-3.29c-0.45-1.02-1.06-1.91-1.82-2.68c-0.76-0.76-1.66-1.37-2.68-1.82c-1.02-0.45-2.12-0.67-3.29-0.67
		c-1.53,0-2.94,0.09-4.23,0.27s-2.41,0.38-3.38,0.61c-0.96,0.23-1.99,0.52-3.1,0.88l-1.17-2.7c0.06-0.03,0.4-0.15,1.01-0.36
		c0.61-0.21,1.45-0.43,2.5-0.68c1.05-0.24,2.29-0.46,3.71-0.65C721.9,258.06,723.45,257.96,725.13,257.96 M723.06,288.24
		c1.2,0,2.34-0.13,3.42-0.4c1.08-0.27,2.07-0.59,2.97-0.97s1.7-0.78,2.41-1.22c0.7-0.43,1.28-0.83,1.73-1.19v-11.07
		c-0.42-0.15-0.95-0.32-1.58-0.52c-0.63-0.19-1.33-0.38-2.09-0.54c-0.76-0.17-1.59-0.31-2.47-0.43c-0.89-0.12-1.79-0.18-2.72-0.18
		c-1.41,0-2.73,0.16-3.96,0.49c-1.23,0.33-2.3,0.82-3.22,1.46c-0.91,0.64-1.63,1.46-2.16,2.45c-0.52,0.99-0.79,2.16-0.79,3.51
		c0,1.26,0.19,2.42,0.58,3.46c0.39,1.05,0.95,1.96,1.69,2.72c0.73,0.76,1.63,1.36,2.68,1.78
		C720.6,288.03,721.77,288.24,723.06,288.24"/>
	
		<path style="clip-path:url(#SVGID_00000000912245670909493010000010871281767668281782_);fill:none;stroke:#085890;stroke-width:5;stroke-miterlimit:10;" d="
		M725.13,257.96c1.56,0,3.04,0.29,4.46,0.86c1.41,0.57,2.67,1.41,3.78,2.52c1.08,1.11,1.91,2.37,2.5,3.78
		c0.58,1.41,0.88,2.9,0.88,4.46v20.48h-3.15v-2.7c-0.6,0.39-1.28,0.78-2.05,1.17c-0.76,0.39-1.6,0.75-2.52,1.08
		c-0.92,0.33-1.91,0.6-2.99,0.81s-2.22,0.32-3.42,0.32c-3.27,0-5.93-0.95-7.97-2.83c-1.05-0.99-1.85-2.18-2.39-3.58
		c-0.54-1.39-0.81-2.95-0.81-4.66c0-1.59,0.29-3.04,0.85-4.36c0.57-1.35,1.43-2.48,2.57-3.38c2.19-1.77,5.27-2.65,9.23-2.65
		c1.95,0,3.76,0.21,5.42,0.63c1.66,0.42,3.02,0.83,4.07,1.21v-1.76c0-1.17-0.23-2.26-0.67-3.29c-0.45-1.02-1.06-1.91-1.82-2.68
		c-0.76-0.76-1.66-1.37-2.68-1.82c-1.02-0.45-2.12-0.67-3.29-0.67c-1.53,0-2.94,0.09-4.23,0.27s-2.41,0.38-3.38,0.61
		c-0.96,0.23-1.99,0.52-3.1,0.88l-1.17-2.7c0.06-0.03,0.4-0.15,1.01-0.36c0.61-0.21,1.45-0.43,2.5-0.68
		c1.05-0.24,2.29-0.46,3.71-0.65C721.9,258.06,723.45,257.96,725.13,257.96z M723.06,288.24c1.2,0,2.34-0.13,3.42-0.4
		c1.08-0.27,2.07-0.59,2.97-0.97s1.7-0.78,2.41-1.22c0.7-0.43,1.28-0.83,1.73-1.19v-11.07c-0.42-0.15-0.95-0.32-1.58-0.52
		c-0.63-0.19-1.33-0.38-2.09-0.54c-0.76-0.17-1.59-0.31-2.47-0.43c-0.89-0.12-1.79-0.18-2.72-0.18c-1.41,0-2.73,0.16-3.96,0.49
		c-1.23,0.33-2.3,0.82-3.22,1.46c-0.91,0.64-1.63,1.46-2.16,2.45c-0.52,0.99-0.79,2.16-0.79,3.51c0,1.26,0.19,2.42,0.58,3.46
		c0.39,1.05,0.95,1.96,1.69,2.72c0.73,0.76,1.63,1.36,2.68,1.78C720.6,288.03,721.77,288.24,723.06,288.24z"/>
	<path style="clip-path:url(#SVGID_00000000912245670909493010000010871281767668281782_);fill:#085890;" d="M766.66,260.39
		c2.31,2.13,3.46,5.02,3.46,8.68v20.97h-3.15v-21.42c0-2.67-0.75-4.75-2.25-6.23c-1.5-1.48-3.57-2.23-6.21-2.23
		c-1.86,0-3.43,0.29-4.7,0.86c-1.28,0.57-2.33,1.22-3.15,1.96c-0.83,0.73-1.45,1.47-1.87,2.2c-0.42,0.74-0.69,1.28-0.81,1.64v23.22
		h-3.15v-32.13h3.15v4.32c0.45-0.57,1-1.14,1.64-1.71c0.64-0.57,1.4-1.08,2.27-1.53c0.87-0.45,1.85-0.82,2.95-1.1
		c1.1-0.29,2.32-0.43,3.67-0.43c0.78,0,1.54,0.06,2.27,0.18c0.73,0.12,1.45,0.3,2.14,0.54
		C764.43,258.69,765.67,259.43,766.66,260.39"/>
	
		<path style="clip-path:url(#SVGID_00000000912245670909493010000010871281767668281782_);fill:none;stroke:#085890;stroke-width:5;stroke-miterlimit:10;" d="
		M766.66,260.39c2.31,2.13,3.46,5.02,3.46,8.68v20.97h-3.15v-21.42c0-2.67-0.75-4.75-2.25-6.23c-1.5-1.48-3.57-2.23-6.21-2.23
		c-1.86,0-3.43,0.29-4.7,0.86c-1.28,0.57-2.33,1.22-3.15,1.96c-0.83,0.73-1.45,1.47-1.87,2.2c-0.42,0.74-0.69,1.28-0.81,1.64v23.22
		h-3.15v-32.13h3.15v4.32c0.45-0.57,1-1.14,1.64-1.71c0.64-0.57,1.4-1.08,2.27-1.53c0.87-0.45,1.85-0.82,2.95-1.1
		c1.1-0.29,2.32-0.43,3.67-0.43c0.78,0,1.54,0.06,2.27,0.18c0.73,0.12,1.45,0.3,2.14,0.54
		C764.43,258.69,765.67,259.43,766.66,260.39z"/>
	<path style="clip-path:url(#SVGID_00000000912245670909493010000010871281767668281782_);fill:#085890;" d="M793.71,260.75
		c-1.83,0-3.55,0.35-5.15,1.04c-1.61,0.69-3.01,1.64-4.21,2.83c-1.2,1.2-2.15,2.6-2.83,4.21c-0.69,1.61-1.04,3.32-1.04,5.15
		c0,1.83,0.34,3.55,1.04,5.15c0.69,1.61,1.63,3.01,2.83,4.21c1.2,1.2,2.6,2.15,4.21,2.84c1.6,0.69,3.32,1.04,5.15,1.04
		c1.53,0,3-0.25,4.41-0.74c1.41-0.49,2.71-1.22,3.91-2.18l1.98,2.48c-1.47,1.14-3.05,2.02-4.73,2.65c-1.8,0.63-3.66,0.95-5.58,0.95
		c-2.25,0-4.37-0.42-6.35-1.26c-2.01-0.87-3.75-2.04-5.22-3.51c-1.53-1.53-2.7-3.27-3.51-5.22c-0.87-2.07-1.31-4.2-1.31-6.39
		c0-2.22,0.43-4.33,1.31-6.35c0.81-2.01,1.98-3.75,3.51-5.22c1.47-1.53,3.21-2.7,5.22-3.51c2.07-0.87,4.19-1.3,6.35-1.3
		c1.95,0,3.81,0.33,5.58,0.99c1.68,0.57,3.26,1.46,4.73,2.65l-1.98,2.43c-1.2-0.96-2.51-1.69-3.91-2.18
		C796.71,261,795.24,260.75,793.71,260.75"/>
	
		<path style="clip-path:url(#SVGID_00000000912245670909493010000010871281767668281782_);fill:none;stroke:#085890;stroke-width:5;stroke-miterlimit:10;" d="
		M793.71,260.75c-1.83,0-3.55,0.35-5.15,1.04c-1.61,0.69-3.01,1.64-4.21,2.83c-1.2,1.2-2.15,2.6-2.83,4.21
		c-0.69,1.61-1.04,3.32-1.04,5.15c0,1.83,0.34,3.55,1.04,5.15c0.69,1.61,1.63,3.01,2.83,4.21c1.2,1.2,2.6,2.15,4.21,2.84
		c1.6,0.69,3.32,1.04,5.15,1.04c1.53,0,3-0.25,4.41-0.74c1.41-0.49,2.71-1.22,3.91-2.18l1.98,2.48c-1.47,1.14-3.05,2.02-4.73,2.65
		c-1.8,0.63-3.66,0.95-5.58,0.95c-2.25,0-4.37-0.42-6.35-1.26c-2.01-0.87-3.75-2.04-5.22-3.51c-1.53-1.53-2.7-3.27-3.51-5.22
		c-0.87-2.07-1.31-4.2-1.31-6.39c0-2.22,0.43-4.33,1.31-6.35c0.81-2.01,1.98-3.75,3.51-5.22c1.47-1.53,3.21-2.7,5.22-3.51
		c2.07-0.87,4.19-1.3,6.35-1.3c1.95,0,3.81,0.33,5.58,0.99c1.68,0.57,3.26,1.46,4.73,2.65l-1.98,2.43c-1.2-0.96-2.51-1.69-3.91-2.18
		C796.71,261,795.24,260.75,793.71,260.75z"/>
	<path style="clip-path:url(#SVGID_00000000912245670909493010000010871281767668281782_);fill:#085890;" d="M832.46,257.91h3.15
		v21.55c0,3.81-1.42,6.71-4.27,8.68c-1.11,0.75-2.39,1.33-3.85,1.73c-1.46,0.4-2.99,0.61-4.61,0.61c-1.77,0-3.35-0.16-4.75-0.49
		c-1.4-0.33-2.58-0.7-3.56-1.1c-0.97-0.4-1.74-0.78-2.3-1.12c-0.55-0.34-0.85-0.53-0.88-0.56l1.89-2.07h-0.04
		c0.03,0,0.26,0.14,0.7,0.43c0.43,0.29,1.07,0.59,1.91,0.92c0.75,0.3,1.72,0.59,2.92,0.88c1.2,0.29,2.57,0.43,4.1,0.43
		c0.36,0,0.86-0.02,1.48-0.07c0.63-0.05,1.3-0.16,2-0.34c0.71-0.18,1.42-0.44,2.14-0.79c0.72-0.34,1.37-0.81,1.96-1.4
		c0.58-0.58,1.07-1.3,1.44-2.16c0.38-0.85,0.56-1.9,0.56-3.13v-2.74c-0.48,0.48-1.03,0.95-1.64,1.42c-0.62,0.47-1.31,0.88-2.09,1.24
		c-0.78,0.36-1.65,0.65-2.61,0.88c-0.96,0.23-2.01,0.34-3.15,0.34c-1.86,0-3.57-0.32-5.13-0.95c-1.53-0.63-2.87-1.51-4.01-2.65
		c-1.14-1.14-2.01-2.45-2.61-3.92c-0.6-1.47-0.9-3.04-0.9-4.73v-10.89h3.15v10.89c0,1.35,0.23,2.6,0.7,3.76
		c0.47,1.16,1.12,2.16,1.96,3.01c0.84,0.86,1.84,1.53,2.99,2.03c1.15,0.49,2.44,0.74,3.85,0.74c1.62,0,2.99-0.22,4.12-0.65
		c1.12-0.43,2.06-0.94,2.81-1.53c0.75-0.59,1.33-1.18,1.73-1.78c0.4-0.6,0.68-1.08,0.83-1.44V257.91z"/>
	
		<path style="clip-path:url(#SVGID_00000000912245670909493010000010871281767668281782_);fill:none;stroke:#085890;stroke-width:5;stroke-miterlimit:10;" d="
		M832.46,257.91h3.15v21.55c0,3.81-1.42,6.71-4.27,8.68c-1.11,0.75-2.39,1.33-3.85,1.73c-1.46,0.4-2.99,0.61-4.61,0.61
		c-1.77,0-3.35-0.16-4.75-0.49c-1.4-0.33-2.58-0.7-3.56-1.1c-0.97-0.4-1.74-0.78-2.3-1.12c-0.55-0.34-0.85-0.53-0.88-0.56l1.89-2.07
		h-0.04c0.03,0,0.26,0.14,0.7,0.43c0.43,0.29,1.07,0.59,1.91,0.92c0.75,0.3,1.72,0.59,2.92,0.88c1.2,0.29,2.57,0.43,4.1,0.43
		c0.36,0,0.86-0.02,1.48-0.07c0.63-0.05,1.3-0.16,2-0.34c0.71-0.18,1.42-0.44,2.14-0.79c0.72-0.34,1.37-0.81,1.96-1.4
		c0.58-0.58,1.07-1.3,1.44-2.16c0.38-0.85,0.56-1.9,0.56-3.13v-2.74c-0.48,0.48-1.03,0.95-1.64,1.42c-0.62,0.47-1.31,0.88-2.09,1.24
		c-0.78,0.36-1.65,0.65-2.61,0.88c-0.96,0.23-2.01,0.34-3.15,0.34c-1.86,0-3.57-0.32-5.13-0.95c-1.53-0.63-2.87-1.51-4.01-2.65
		c-1.14-1.14-2.01-2.45-2.61-3.92c-0.6-1.47-0.9-3.04-0.9-4.73v-10.89h3.15v10.89c0,1.35,0.23,2.6,0.7,3.76
		c0.47,1.16,1.12,2.16,1.96,3.01c0.84,0.86,1.84,1.53,2.99,2.03c1.15,0.49,2.44,0.74,3.85,0.74c1.62,0,2.99-0.22,4.12-0.65
		c1.12-0.43,2.06-0.94,2.81-1.53c0.75-0.59,1.33-1.18,1.73-1.78c0.4-0.6,0.68-1.08,0.83-1.44V257.91z"/>
	<path style="clip-path:url(#SVGID_00000000912245670909493010000010871281767668281782_);fill:#ED1C24;" d="M510.35,341.47
		c1.53,1.1,2.74,2.35,3.64,3.76c0.98,1.65,1.47,3.41,1.47,5.29c0,1.65-0.38,3.15-1.15,4.53c-0.76,1.37-1.83,2.53-3.2,3.47
		c-1.25,0.9-2.71,1.57-4.38,2c-1.67,0.43-3.48,0.65-5.44,0.65c-2.74,0-5.09-0.37-7.05-1.12c-1.96-0.74-3.57-1.57-4.82-2.47
		c-1.26-0.9-2.2-1.74-2.82-2.53c-0.63-0.78-0.96-1.21-1-1.29l3.47-2.18c0.04,0,0.28,0.29,0.73,0.88c0.45,0.59,1.17,1.21,2.15,1.88
		c2.55,1.8,5.66,2.7,9.35,2.7c1.49,0,2.88-0.16,4.17-0.47c1.29-0.31,2.39-0.78,3.29-1.41c1.73-1.18,2.59-2.72,2.59-4.64
		c0-2.19-1.12-4.1-3.35-5.7c-1.14-0.82-2.47-1.57-4-2.23c-1.53-0.67-3.1-1.29-4.7-1.88c-1.57-0.63-3.11-1.26-4.62-1.91
		c-1.51-0.65-2.89-1.4-4.14-2.26c-1.41-0.98-2.51-2.06-3.29-3.23c-0.9-1.45-1.35-3.02-1.35-4.7c0-3.37,1.41-5.92,4.23-7.64
		c2.47-1.53,5.88-2.29,10.23-2.29c1.92,0,3.73,0.22,5.44,0.65c1.7,0.43,3.19,0.91,4.47,1.44c1.27,0.53,2.28,1.03,3.03,1.5
		c0.74,0.47,1.16,0.73,1.24,0.76l-1.12,1.7l-1.18,1.7c-1.29-0.78-2.48-1.4-3.56-1.85c-1.08-0.45-2.33-0.86-3.76-1.23
		c-1.43-0.37-2.95-0.56-4.56-0.56c-3.57,0-6.25,0.55-8.05,1.65c-1.53,1.02-2.29,2.41-2.29,4.17c0,1.69,0.96,3.21,2.88,4.58
		c1.02,0.71,2.21,1.35,3.59,1.94c1.37,0.59,2.82,1.18,4.35,1.76c1.68,0.67,3.35,1.35,5,2.06
		C507.46,339.64,508.97,340.49,510.35,341.47"/>
	
		<path style="clip-path:url(#SVGID_00000000912245670909493010000010871281767668281782_);fill:none;stroke:#ED1C24;stroke-width:5;stroke-miterlimit:10;" d="
		M510.35,341.47c1.53,1.1,2.74,2.35,3.64,3.76c0.98,1.65,1.47,3.41,1.47,5.29c0,1.65-0.38,3.15-1.15,4.53
		c-0.76,1.37-1.83,2.53-3.2,3.47c-1.25,0.9-2.71,1.57-4.38,2c-1.67,0.43-3.48,0.65-5.44,0.65c-2.74,0-5.09-0.37-7.05-1.12
		c-1.96-0.74-3.57-1.57-4.82-2.47c-1.26-0.9-2.2-1.74-2.82-2.53c-0.63-0.78-0.96-1.21-1-1.29l3.47-2.18c0.04,0,0.28,0.29,0.73,0.88
		c0.45,0.59,1.17,1.21,2.15,1.88c2.55,1.8,5.66,2.7,9.35,2.7c1.49,0,2.88-0.16,4.17-0.47c1.29-0.31,2.39-0.78,3.29-1.41
		c1.73-1.18,2.59-2.72,2.59-4.64c0-2.19-1.12-4.1-3.35-5.7c-1.14-0.82-2.47-1.57-4-2.23c-1.53-0.67-3.1-1.29-4.7-1.88
		c-1.57-0.63-3.11-1.26-4.62-1.91c-1.51-0.65-2.89-1.4-4.14-2.26c-1.41-0.98-2.51-2.06-3.29-3.23c-0.9-1.45-1.35-3.02-1.35-4.7
		c0-3.37,1.41-5.92,4.23-7.64c2.47-1.53,5.88-2.29,10.23-2.29c1.92,0,3.73,0.22,5.44,0.65c1.7,0.43,3.19,0.91,4.47,1.44
		c1.27,0.53,2.28,1.03,3.03,1.5c0.74,0.47,1.16,0.73,1.24,0.76l-1.12,1.7l-1.18,1.7c-1.29-0.78-2.48-1.4-3.56-1.85
		c-1.08-0.45-2.33-0.86-3.76-1.23c-1.43-0.37-2.95-0.56-4.56-0.56c-3.57,0-6.25,0.55-8.05,1.65c-1.53,1.02-2.29,2.41-2.29,4.17
		c0,1.69,0.96,3.21,2.88,4.58c1.02,0.71,2.21,1.35,3.59,1.94c1.37,0.59,2.82,1.18,4.35,1.76c1.68,0.67,3.35,1.35,5,2.06
		C507.46,339.64,508.97,340.49,510.35,341.47z"/>
	<path style="clip-path:url(#SVGID_00000000912245670909493010000010871281767668281782_);fill:#085890;" d="M528.09,343.71v0.81
		c0,1.83,0.35,3.55,1.06,5.17c0.7,1.62,1.66,3.03,2.86,4.23c1.2,1.2,2.61,2.15,4.23,2.86c1.62,0.71,3.35,1.06,5.18,1.06
		c4.44,0,7.99-1.59,10.66-4.77l2.39,2.02c-1.5,1.86-3.35,3.3-5.54,4.32c-2.28,1.05-4.78,1.57-7.51,1.57c-2.22,0-4.36-0.43-6.44-1.3
		c-1.95-0.81-3.69-1.98-5.22-3.51c-0.75-0.78-1.42-1.61-2-2.48c-0.59-0.87-1.09-1.79-1.51-2.74c-0.87-2.07-1.31-4.21-1.31-6.43
		c0-2.25,0.37-4.37,1.1-6.37c0.74-1.99,1.81-3.74,3.22-5.24c1.41-1.47,3.14-2.65,5.17-3.55c2.04-0.84,4.32-1.26,6.84-1.26
		c2.13,0,4.1,0.36,5.9,1.08c1.71,0.66,3.24,1.66,4.59,3.01c1.29,1.26,2.29,2.74,3.02,4.43c0.72,1.7,1.12,3.5,1.22,5.42l0.09,1.67
		H528.09z M541.27,331.25c-3.63,0-6.46,0.85-8.48,2.54c-2.02,1.69-3.43,4.1-4.21,7.22h24.12c-0.18-1.5-0.6-2.86-1.26-4.07
		c-0.66-1.21-1.5-2.24-2.52-3.08c-1.02-0.84-2.18-1.49-3.49-1.93C544.13,331.47,542.74,331.25,541.27,331.25"/>
	
		<path style="clip-path:url(#SVGID_00000000912245670909493010000010871281767668281782_);fill:none;stroke:#085890;stroke-width:5;stroke-miterlimit:10;" d="
		M528.09,343.71v0.81c0,1.83,0.35,3.55,1.06,5.17c0.7,1.62,1.66,3.03,2.86,4.23c1.2,1.2,2.61,2.15,4.23,2.86
		c1.62,0.71,3.35,1.06,5.18,1.06c4.44,0,7.99-1.59,10.66-4.77l2.39,2.02c-1.5,1.86-3.35,3.3-5.54,4.32
		c-2.28,1.05-4.78,1.57-7.51,1.57c-2.22,0-4.36-0.43-6.44-1.3c-1.95-0.81-3.69-1.98-5.22-3.51c-0.75-0.78-1.42-1.61-2-2.48
		c-0.59-0.87-1.09-1.79-1.51-2.74c-0.87-2.07-1.31-4.21-1.31-6.43c0-2.25,0.37-4.37,1.1-6.37c0.74-1.99,1.81-3.74,3.22-5.24
		c1.41-1.47,3.14-2.65,5.17-3.55c2.04-0.84,4.32-1.26,6.84-1.26c2.13,0,4.1,0.36,5.9,1.08c1.71,0.66,3.24,1.66,4.59,3.01
		c1.29,1.26,2.29,2.74,3.02,4.43c0.72,1.7,1.12,3.5,1.22,5.42l0.09,1.67H528.09z M541.27,331.25c-3.63,0-6.46,0.85-8.48,2.54
		c-2.02,1.69-3.43,4.1-4.21,7.22h24.12c-0.18-1.5-0.6-2.86-1.26-4.07c-0.66-1.21-1.5-2.24-2.52-3.08c-1.02-0.84-2.18-1.49-3.49-1.93
		C544.13,331.47,542.74,331.25,541.27,331.25z"/>
	<path style="clip-path:url(#SVGID_00000000912245670909493010000010871281767668281782_);fill:#085890;" d="M580.24,353.12
		c2.07,2.88,4.96,4.32,8.68,4.32v3.15c-1.5,0-2.84-0.17-4.03-0.52c-1.19-0.34-2.24-0.79-3.17-1.35c-0.93-0.55-1.73-1.17-2.41-1.84
		c-0.67-0.68-1.25-1.34-1.73-2c-0.6-0.84-1.07-1.64-1.42-2.41c-0.35-0.76-0.61-1.43-0.79-2h-8.95v10.12h-3.15v-32.13h13.32
		c1.47,0,2.87,0.28,4.21,0.83c1.33,0.56,2.53,1.36,3.58,2.41c1.05,1.05,1.85,2.24,2.39,3.58c0.54,1.33,0.81,2.74,0.81,4.21
		s-0.27,2.87-0.81,4.21c-0.54,1.33-1.34,2.53-2.39,3.58c-1.65,1.62-3.55,2.62-5.71,3.01c0.15,0.42,0.35,0.87,0.61,1.35
		C579.53,352.11,579.85,352.61,580.24,353.12 M566.43,347.31h10.17c1.08,0,2.09-0.2,3.04-0.61c0.95-0.4,1.78-0.97,2.5-1.69
		c0.72-0.72,1.28-1.55,1.69-2.5c0.41-0.95,0.61-1.96,0.61-3.04c0-1.08-0.2-2.1-0.61-3.06c-0.41-0.96-0.97-1.79-1.69-2.5
		c-0.72-0.7-1.55-1.27-2.5-1.69c-0.94-0.42-1.96-0.63-3.04-0.63h-10.17V347.31z"/>
	
		<path style="clip-path:url(#SVGID_00000000912245670909493010000010871281767668281782_);fill:none;stroke:#085890;stroke-width:5;stroke-miterlimit:10;" d="
		M580.24,353.12c2.07,2.88,4.96,4.32,8.68,4.32v3.15c-1.5,0-2.84-0.17-4.03-0.52c-1.19-0.34-2.24-0.79-3.17-1.35
		c-0.93-0.55-1.73-1.17-2.41-1.84c-0.67-0.68-1.25-1.34-1.73-2c-0.6-0.84-1.07-1.64-1.42-2.41c-0.35-0.76-0.61-1.43-0.79-2h-8.95
		v10.12h-3.15v-32.13h13.32c1.47,0,2.87,0.28,4.21,0.83c1.33,0.56,2.53,1.36,3.58,2.41c1.05,1.05,1.85,2.24,2.39,3.58
		c0.54,1.33,0.81,2.74,0.81,4.21s-0.27,2.87-0.81,4.21c-0.54,1.33-1.34,2.53-2.39,3.58c-1.65,1.62-3.55,2.62-5.71,3.01
		c0.15,0.42,0.35,0.87,0.61,1.35C579.53,352.11,579.85,352.61,580.24,353.12z M566.43,347.31h10.17c1.08,0,2.09-0.2,3.04-0.61
		c0.95-0.4,1.78-0.97,2.5-1.69c0.72-0.72,1.28-1.55,1.69-2.5c0.41-0.95,0.61-1.96,0.61-3.04c0-1.08-0.2-2.1-0.61-3.06
		c-0.41-0.96-0.97-1.79-1.69-2.5c-0.72-0.7-1.55-1.27-2.5-1.69c-0.94-0.42-1.96-0.63-3.04-0.63h-10.17V347.31z"/>
	<polygon style="clip-path:url(#SVGID_00000000912245670909493010000010871281767668281782_);fill:#085890;" points="617.28,328.46 
		620.74,328.46 605.98,360.59 591.18,328.46 594.64,328.46 605.98,353.07 	"/>
	
		<polygon style="clip-path:url(#SVGID_00000000912245670909493010000010871281767668281782_);fill:none;stroke:#085890;stroke-width:5;stroke-miterlimit:10;" points="
		617.28,328.46 620.74,328.46 605.98,360.59 591.18,328.46 594.64,328.46 605.98,353.07 	"/>
	
		<rect x="627.04" y="328.46" style="clip-path:url(#SVGID_00000000912245670909493010000010871281767668281782_);fill:#085890;" width="3.15" height="32.13"/>
	
		<rect x="627.04" y="328.46" style="clip-path:url(#SVGID_00000000912245670909493010000010871281767668281782_);fill:none;stroke:#085890;stroke-width:5;stroke-miterlimit:10;" width="3.15" height="32.13"/>
	<path style="clip-path:url(#SVGID_00000000912245670909493010000010871281767668281782_);fill:#085890;" d="M653.77,331.29
		c-1.83,0-3.55,0.35-5.15,1.04c-1.61,0.69-3.01,1.64-4.21,2.83c-1.2,1.2-2.15,2.6-2.83,4.21c-0.69,1.61-1.04,3.32-1.04,5.15
		c0,1.83,0.34,3.55,1.04,5.15c0.69,1.61,1.63,3.01,2.83,4.21c1.2,1.2,2.6,2.14,4.21,2.83c1.6,0.69,3.32,1.04,5.15,1.04
		c1.53,0,3-0.25,4.41-0.74c1.41-0.5,2.71-1.22,3.91-2.18l1.98,2.48c-1.47,1.14-3.05,2.02-4.73,2.65c-1.8,0.63-3.66,0.94-5.58,0.94
		c-2.25,0-4.36-0.42-6.35-1.26c-2.01-0.87-3.75-2.04-5.22-3.51c-1.53-1.53-2.7-3.27-3.51-5.22c-0.87-2.07-1.31-4.2-1.31-6.39
		c0-2.22,0.43-4.34,1.31-6.35c0.81-2.01,1.98-3.75,3.51-5.22c1.47-1.53,3.21-2.7,5.22-3.51c2.07-0.87,4.19-1.3,6.35-1.3
		c1.95,0,3.81,0.33,5.58,0.99c1.68,0.57,3.26,1.46,4.73,2.65l-1.98,2.43c-1.2-0.96-2.51-1.69-3.91-2.18
		C656.77,331.54,655.3,331.29,653.77,331.29"/>
	
		<path style="clip-path:url(#SVGID_00000000912245670909493010000010871281767668281782_);fill:none;stroke:#085890;stroke-width:5;stroke-miterlimit:10;" d="
		M653.77,331.29c-1.83,0-3.55,0.35-5.15,1.04c-1.61,0.69-3.01,1.64-4.21,2.83c-1.2,1.2-2.15,2.6-2.83,4.21
		c-0.69,1.61-1.04,3.32-1.04,5.15c0,1.83,0.34,3.55,1.04,5.15c0.69,1.61,1.63,3.01,2.83,4.21c1.2,1.2,2.6,2.14,4.21,2.83
		c1.6,0.69,3.32,1.04,5.15,1.04c1.53,0,3-0.25,4.41-0.74c1.41-0.5,2.71-1.22,3.91-2.18l1.98,2.48c-1.47,1.14-3.05,2.02-4.73,2.65
		c-1.8,0.63-3.66,0.94-5.58,0.94c-2.25,0-4.36-0.42-6.35-1.26c-2.01-0.87-3.75-2.04-5.22-3.51c-1.53-1.53-2.7-3.27-3.51-5.22
		c-0.87-2.07-1.31-4.2-1.31-6.39c0-2.22,0.43-4.34,1.31-6.35c0.81-2.01,1.98-3.75,3.51-5.22c1.47-1.53,3.21-2.7,5.22-3.51
		c2.07-0.87,4.19-1.3,6.35-1.3c1.95,0,3.81,0.33,5.58,0.99c1.68,0.57,3.26,1.46,4.73,2.65l-1.98,2.43c-1.2-0.96-2.51-1.69-3.91-2.18
		C656.77,331.54,655.3,331.29,653.77,331.29z"/>
	<path style="clip-path:url(#SVGID_00000000912245670909493010000010871281767668281782_);fill:#085890;" d="M671.73,343.71v0.81
		c0,1.83,0.35,3.55,1.06,5.17c0.7,1.62,1.66,3.03,2.86,4.23c1.2,1.2,2.61,2.15,4.23,2.86c1.62,0.71,3.35,1.06,5.18,1.06
		c4.44,0,7.99-1.59,10.67-4.77l2.38,2.02c-1.5,1.86-3.35,3.3-5.54,4.32c-2.28,1.05-4.78,1.57-7.51,1.57c-2.22,0-4.36-0.43-6.44-1.3
		c-1.95-0.81-3.69-1.98-5.22-3.51c-0.75-0.78-1.42-1.61-2-2.48c-0.59-0.87-1.09-1.79-1.51-2.74c-0.87-2.07-1.31-4.21-1.31-6.43
		c0-2.25,0.37-4.37,1.1-6.37c0.74-1.99,1.81-3.74,3.22-5.24c1.41-1.47,3.14-2.65,5.17-3.55c2.04-0.84,4.32-1.26,6.84-1.26
		c2.13,0,4.1,0.36,5.9,1.08c1.71,0.66,3.24,1.66,4.59,3.01c1.29,1.26,2.29,2.74,3.02,4.43c0.72,1.7,1.12,3.5,1.22,5.42l0.09,1.67
		H671.73z M684.91,331.25c-3.63,0-6.46,0.85-8.48,2.54c-2.02,1.69-3.43,4.1-4.21,7.22h24.12c-0.18-1.5-0.6-2.86-1.26-4.07
		c-0.66-1.21-1.5-2.24-2.52-3.08c-1.02-0.84-2.18-1.49-3.49-1.93C687.77,331.47,686.38,331.25,684.91,331.25"/>
	
		<path style="clip-path:url(#SVGID_00000000912245670909493010000010871281767668281782_);fill:none;stroke:#085890;stroke-width:5;stroke-miterlimit:10;" d="
		M671.73,343.71v0.81c0,1.83,0.35,3.55,1.06,5.17c0.7,1.62,1.66,3.03,2.86,4.23c1.2,1.2,2.61,2.15,4.23,2.86
		c1.62,0.71,3.35,1.06,5.18,1.06c4.44,0,7.99-1.59,10.67-4.77l2.38,2.02c-1.5,1.86-3.35,3.3-5.54,4.32
		c-2.28,1.05-4.78,1.57-7.51,1.57c-2.22,0-4.36-0.43-6.44-1.3c-1.95-0.81-3.69-1.98-5.22-3.51c-0.75-0.78-1.42-1.61-2-2.48
		c-0.59-0.87-1.09-1.79-1.51-2.74c-0.87-2.07-1.31-4.21-1.31-6.43c0-2.25,0.37-4.37,1.1-6.37c0.74-1.99,1.81-3.74,3.22-5.24
		c1.41-1.47,3.14-2.65,5.17-3.55c2.04-0.84,4.32-1.26,6.84-1.26c2.13,0,4.1,0.36,5.9,1.08c1.71,0.66,3.24,1.66,4.59,3.01
		c1.29,1.26,2.29,2.74,3.02,4.43c0.72,1.7,1.12,3.5,1.22,5.42l0.09,1.67H671.73z M684.91,331.25c-3.63,0-6.46,0.85-8.48,2.54
		c-2.02,1.69-3.43,4.1-4.21,7.22h24.12c-0.18-1.5-0.6-2.86-1.26-4.07c-0.66-1.21-1.5-2.24-2.52-3.08c-1.02-0.84-2.18-1.49-3.49-1.93
		C687.77,331.47,686.38,331.25,684.91,331.25z"/>
	<path style="clip-path:url(#SVGID_00000000912245670909493010000010871281767668281782_);fill:#085890;" d="M725.91,345.96
		c1.2,0.84,2.11,1.8,2.74,2.88c0.75,1.26,1.12,2.61,1.12,4.05c0,1.26-0.29,2.42-0.85,3.47c-0.57,1.05-1.4,1.93-2.48,2.65
		c-0.96,0.69-2.08,1.2-3.35,1.53c-1.27,0.33-2.66,0.49-4.16,0.49c-2.1,0-3.9-0.29-5.4-0.86s-2.73-1.2-3.69-1.89
		c-0.96-0.69-1.68-1.33-2.16-1.93c-0.48-0.6-0.73-0.93-0.77-0.99l2.7-1.66h-0.04c0.03,0,0.22,0.22,0.56,0.65
		c0.34,0.43,0.89,0.92,1.64,1.46c2.01,1.38,4.39,2.07,7.15,2.07c1.14,0,2.21-0.13,3.22-0.38c1.01-0.25,1.85-0.62,2.54-1.1
		c1.29-0.87,1.94-2.04,1.94-3.51c0-1.68-0.86-3.13-2.57-4.36c-0.87-0.63-1.89-1.2-3.06-1.71c-1.17-0.51-2.36-0.99-3.56-1.44
		c-1.2-0.48-2.39-0.97-3.55-1.46c-1.17-0.49-2.23-1.07-3.2-1.73c-1.11-0.75-1.95-1.59-2.52-2.52c-0.69-1.05-1.04-2.24-1.04-3.55
		c0-2.58,1.08-4.53,3.24-5.85c1.95-1.2,4.56-1.8,7.83-1.8c1.47,0,2.86,0.17,4.16,0.52c1.3,0.35,2.44,0.72,3.42,1.12
		c0.97,0.41,1.76,0.79,2.34,1.15c0.59,0.36,0.91,0.55,0.97,0.58l-0.9,1.31l-0.9,1.3c-0.99-0.6-1.9-1.08-2.72-1.44
		c-0.83-0.36-1.79-0.68-2.88-0.97c-1.1-0.28-2.26-0.43-3.49-0.43c-2.7,0-4.76,0.43-6.16,1.3c-1.17,0.78-1.76,1.85-1.76,3.2
		c0,1.32,0.74,2.47,2.21,3.46c0.78,0.57,1.7,1.07,2.74,1.51c1.05,0.44,2.16,0.88,3.33,1.33c1.29,0.51,2.57,1.04,3.85,1.6
		C723.7,344.56,724.86,345.21,725.91,345.96"/>
	
		<path style="clip-path:url(#SVGID_00000000912245670909493010000010871281767668281782_);fill:none;stroke:#085890;stroke-width:5;stroke-miterlimit:10;" d="
		M725.91,345.96c1.2,0.84,2.11,1.8,2.74,2.88c0.75,1.26,1.12,2.61,1.12,4.05c0,1.26-0.29,2.42-0.85,3.47
		c-0.57,1.05-1.4,1.93-2.48,2.65c-0.96,0.69-2.08,1.2-3.35,1.53c-1.27,0.33-2.66,0.49-4.16,0.49c-2.1,0-3.9-0.29-5.4-0.86
		s-2.73-1.2-3.69-1.89c-0.96-0.69-1.68-1.33-2.16-1.93c-0.48-0.6-0.73-0.93-0.77-0.99l2.7-1.66h-0.04c0.03,0,0.22,0.22,0.56,0.65
		c0.34,0.43,0.89,0.92,1.64,1.46c2.01,1.38,4.39,2.07,7.15,2.07c1.14,0,2.21-0.13,3.22-0.38c1.01-0.25,1.85-0.62,2.54-1.1
		c1.29-0.87,1.94-2.04,1.94-3.51c0-1.68-0.86-3.13-2.57-4.36c-0.87-0.63-1.89-1.2-3.06-1.71c-1.17-0.51-2.36-0.99-3.56-1.44
		c-1.2-0.48-2.39-0.97-3.55-1.46c-1.17-0.49-2.23-1.07-3.2-1.73c-1.11-0.75-1.95-1.59-2.52-2.52c-0.69-1.05-1.04-2.24-1.04-3.55
		c0-2.58,1.08-4.53,3.24-5.85c1.95-1.2,4.56-1.8,7.83-1.8c1.47,0,2.86,0.17,4.16,0.52c1.3,0.35,2.44,0.72,3.42,1.12
		c0.97,0.41,1.76,0.79,2.34,1.15c0.59,0.36,0.91,0.55,0.97,0.58l-0.9,1.31l-0.9,1.3c-0.99-0.6-1.9-1.08-2.72-1.44
		c-0.83-0.36-1.79-0.68-2.88-0.97c-1.1-0.28-2.26-0.43-3.49-0.43c-2.7,0-4.76,0.43-6.16,1.3c-1.17,0.78-1.76,1.85-1.76,3.2
		c0,1.32,0.74,2.47,2.21,3.46c0.78,0.57,1.7,1.07,2.74,1.51c1.05,0.44,2.16,0.88,3.33,1.33c1.29,0.51,2.57,1.04,3.85,1.6
		C723.7,344.56,724.86,345.21,725.91,345.96z"/>
	<polygon style="clip-path:url(#SVGID_00000000912245670909493010000010871281767668281782_);fill:#085890;" points="757.68,357.44 
		773.16,357.44 772.71,360.59 754.53,360.59 754.53,328.5 757.68,328.5 	"/>
	
		<polygon style="clip-path:url(#SVGID_00000000912245670909493010000010871281767668281782_);fill:none;stroke:#085890;stroke-width:5;stroke-miterlimit:10;" points="
		757.68,357.44 773.16,357.44 772.71,360.59 754.53,360.59 754.53,328.5 757.68,328.5 	"/>
	<polygon style="clip-path:url(#SVGID_00000000912245670909493010000010871281767668281782_);fill:#085890;" points="773.61,328.46 
		797.01,328.46 797.01,331.61 786.88,331.61 786.88,360.59 783.73,360.59 783.73,331.61 773.61,331.61 	"/>
	
		<polygon style="clip-path:url(#SVGID_00000000912245670909493010000010871281767668281782_);fill:none;stroke:#085890;stroke-width:5;stroke-miterlimit:10;" points="
		773.61,328.46 797.01,328.46 797.01,331.61 786.88,331.61 786.88,360.59 783.73,360.59 783.73,331.61 773.61,331.61 	"/>
	<path style="clip-path:url(#SVGID_00000000912245670909493010000010871281767668281782_);fill:#085890;" d="M825.13,333.18
		c1.44,1.44,2.58,3.14,3.42,5.09c0.84,1.95,1.26,4.04,1.26,6.26s-0.42,4.3-1.26,6.25c-0.81,1.95-1.95,3.66-3.42,5.13
		c-1.53,1.5-3.24,2.64-5.13,3.42c-1.95,0.84-4.02,1.26-6.21,1.26h-9.59V328.5h9.59c2.19,0,4.26,0.42,6.21,1.26
		C821.95,330.57,823.66,331.71,825.13,333.18 M813.79,357.44c1.77,0,3.44-0.34,4.99-1.01c1.56-0.67,2.93-1.6,4.1-2.77
		c1.17-1.17,2.09-2.54,2.77-4.12c0.67-1.58,1.01-3.25,1.01-5.02c0-1.77-0.34-3.43-1.01-5c-0.67-1.56-1.6-2.92-2.77-4.1
		c-1.17-1.17-2.54-2.09-4.1-2.77c-1.56-0.68-3.22-1.01-4.99-1.01h-6.44v25.79H813.79z"/>
	
		<path style="clip-path:url(#SVGID_00000000912245670909493010000010871281767668281782_);fill:none;stroke:#085890;stroke-width:5;stroke-miterlimit:10;" d="
		M825.13,333.18c1.44,1.44,2.58,3.14,3.42,5.09c0.84,1.95,1.26,4.04,1.26,6.26s-0.42,4.3-1.26,6.25c-0.81,1.95-1.95,3.66-3.42,5.13
		c-1.53,1.5-3.24,2.64-5.13,3.42c-1.95,0.84-4.02,1.26-6.21,1.26h-9.59V328.5h9.59c2.19,0,4.26,0.42,6.21,1.26
		C821.95,330.57,823.66,331.71,825.13,333.18z M813.79,357.44c1.77,0,3.44-0.34,4.99-1.01c1.56-0.67,2.93-1.6,4.1-2.77
		c1.17-1.17,2.09-2.54,2.77-4.12c0.67-1.58,1.01-3.25,1.01-5.02c0-1.77-0.34-3.43-1.01-5c-0.67-1.56-1.6-2.92-2.77-4.1
		c-1.17-1.17-2.54-2.09-4.1-2.77c-1.56-0.68-3.22-1.01-4.99-1.01h-6.44v25.79H813.79z"/>
</g>
</svg>
